*
G04 Mass Parameters ***
*
G04 Image ***
*
%IND:\DO NHIET DO VA DO AM\SHT11 - MEGA32A\SCHEMATIC_LAYOUT_SHT11\PCB-SHT11-FULL-SEND\PCB-SHT11-MCU\PCB-SHT11-MCU-LAYOUT\PCB-SHT11-MCU.AST*%
%ICAS*%
%MOIN*%
%IPPOS*%
%ASAXBY*%
G74*%FSLAN2X34Y34*%
*
G04 Aperture Definitions ***
*
%ADD10C,0.0500*%
%ADD11C,0.0020*%
%ADD12R,0.0500X0.0500*%
%ADD13C,0.0800*%
%ADD14R,0.0800X0.0800*%
%ADD15C,0.0600*%
%ADD16R,0.0600X0.0600*%
%ADD17O,0.0950X0.0650*%
%ADD18R,0.0950X0.0650*%
%ADD19C,0.1000*%
%ADD20R,0.1000X0.1000*%
%ADD21O,0.0650X0.0650*%
%ADD22R,0.0650X0.0650*%
%ADD23C,0.1260*%
%ADD24C,0.0650*%
%ADD25C,0.1575*%
%ADD26O,0.0750X0.0900*%
%ADD27R,0.0750X0.0900*%
%ADD28O,0.0949X0.0649*%
%ADD29C,0.0790*%
%ADD30O,0.0850X0.0700*%
%ADD31R,0.0850X0.0700*%
%ADD32C,0.0600*%
%ADD33C,0.0250*%
%ADD34C,0.0600*%
%ADD35C,0.0200*%
%ADD36C,0.0787*%
%ADD37C,0.0010*%
%ADD38C,0.0100*%
%ADD39C,0.0550*%
%ADD40R,0.0550X0.0550*%
%ADD41C,0.0880*%
%ADD42R,0.0880X0.0880*%
%ADD43C,0.0680*%
%ADD44R,0.0680X0.0680*%
%ADD45O,0.1030X0.0730*%
%ADD46R,0.1030X0.0730*%
%ADD47C,0.1080*%
%ADD48R,0.1080X0.1080*%
%ADD49O,0.0730X0.0730*%
%ADD50R,0.0730X0.0730*%
%ADD51C,0.1338*%
%ADD52C,0.0730*%
%ADD53C,0.1650*%
%ADD54O,0.0830X0.0980*%
%ADD55R,0.0830X0.0980*%
%ADD56O,0.1027X0.0728*%
%ADD57C,0.0870*%
%ADD58O,0.0930X0.0780*%
%ADD59R,0.0930X0.0780*%
%ADD60C,0.0650*%
%ADD61C,0.0004*%
%ADD62C,0.0080*%
%ADD63C,0.0050*%
%ADD64C,0.0079*%
%ADD65C,0.0030*%
%ADD66C,0.0118*%
%ADD67C,0.0300*%
%ADD68C,0.0060*%
%ADD69C,0.0710*%
%ADD70R,0.0710X0.0710*%
*
G04 Plot Data ***
*
G54D33*
G01X0003244Y0004189D02*
X0003633D01*
X0003244D01*
X0001631Y0004193D02*
X0001242D01*
X0001631D01*
X0002239Y0005809D02*
X0002628D01*
X0002239D01*
G54D38*
G01X0000000Y0000000D02*
X0040250D01*
Y0032000D01*
X0000000D01*
Y0000000D01*
G54D62*
G01X0012750Y0003625D02*
Y0004625D01*
X0004750D01*
Y0003625D01*
X0012750D01*
X0027500Y0021000D02*
Y0017500D01*
X0007000D01*
Y0022500D01*
X0027500D01*
Y0021000D01*
X0026750D01*
Y0019000D01*
X0027500D01*
X0023750Y0015375D02*
Y0015250D01*
X0024750Y0012125D02*
Y0012250D01*
X0024350D02*
Y0015250D01*
X0025150D01*
Y0012250D01*
X0024350D01*
X0024750Y0015375D02*
Y0015250D01*
X0032125Y0008000D02*
X0032000D01*
X0011103Y0017896D02*
X0012518Y0019310D01*
X0010396Y0018603D02*
X0011810Y0020018D01*
X0012518Y0019310D01*
X0011103Y0017896D01*
X0010396Y0018603D01*
X0018750Y0018125D02*
Y0018250D01*
X0022375Y0028500D02*
X0022250D01*
X0018350Y0018250D02*
Y0021250D01*
X0019150D01*
Y0018250D01*
X0018350D01*
X0018750Y0021375D02*
Y0021250D01*
X0004500Y0013625D02*
Y0013500D01*
X0017750Y0019000D02*
Y0021000D01*
X0003500Y0024750D02*
X0002500D01*
Y0020750D01*
X0003500D01*
Y0024750D01*
X0002493Y0018893D02*
Y0016893D01*
X0003493Y0018893D02*
Y0016893D01*
X0002493D01*
Y0018893D01*
X0003493D01*
X0016750Y0019000D02*
Y0021000D01*
X0017750D01*
Y0019000D01*
X0016750D01*
X0022350Y0012250D02*
Y0015250D01*
X0023150D01*
Y0012250D01*
X0022350D01*
X0028875Y0008000D02*
X0029000D01*
X0020350Y0012250D02*
Y0015250D01*
X0021150D01*
Y0012250D01*
X0020350D01*
X0020750Y0015375D02*
Y0015250D01*
X0023500Y0024400D02*
X0026500D01*
Y0023600D01*
X0023500D01*
Y0024400D01*
X0026625Y0024000D02*
X0026500D01*
X0004900Y0013500D02*
Y0010500D01*
X0004100D01*
Y0013500D01*
X0004900D01*
X0004500Y0010375D02*
Y0010500D01*
X0022750Y0015375D02*
Y0015250D01*
X0030750Y0001450D02*
Y0001950D01*
X0031500Y0005062D02*
X0031000Y0005562D01*
X0030000D01*
Y0001437D01*
X0031000D01*
X0031500Y0001937D01*
Y0005062D01*
X0030750Y0005550D02*
Y0005050D01*
X0003500Y0015500D02*
X0002500D01*
Y0011500D01*
X0003500D01*
Y0015500D01*
X0023375Y0024000D02*
X0023500D01*
X0021750Y0012125D02*
Y0012250D01*
X0021350D02*
Y0015250D01*
X0022150D01*
Y0012250D01*
X0021350D01*
X0021750Y0015375D02*
Y0015250D01*
X0019250Y0028900D02*
X0022250D01*
Y0028100D01*
X0019250D01*
Y0028900D01*
X0022750Y0012125D02*
Y0012250D01*
X0019750Y0012125D02*
Y0012250D01*
X0019350D02*
Y0015250D01*
X0020150D01*
Y0012250D01*
X0019350D01*
X0019750Y0015375D02*
Y0015250D01*
X0028000Y0005000D02*
Y0003000D01*
X0029000Y0005000D02*
Y0003000D01*
X0028000D01*
Y0005000D01*
X0029000D01*
X0023350Y0012250D02*
Y0015250D01*
X0024150D01*
Y0012250D01*
X0023350D01*
X0038250Y0013750D02*
Y0011750D01*
X0037250D01*
Y0013750D01*
X0038250D01*
X0020750Y0012125D02*
Y0012250D01*
X0032000Y0007600D02*
X0029000D01*
Y0008400D01*
X0032000D01*
Y0007600D01*
X0023750Y0012125D02*
Y0012250D01*
X0019125Y0028500D02*
X0019250D01*
G54D63*
G01X0037250Y0018250D02*
Y0024250D01*
X0038250D01*
Y0018250D01*
X0037250D01*
X0038250Y0017500D02*
Y0015500D01*
X0037250D01*
Y0017500D01*
X0038250D01*
G54D19*
X0017463Y0003500D03*
G54D20*
X0019037D03*
G54D36*
X0015150Y0020000D03*
X0013150D03*
G54D39*
X0028500Y0003500D03*
X0002993Y0017393D03*
X0017250Y0020500D03*
X0011810Y0019310D03*
G54D45*
X0037750Y0012250D03*
X0003000Y0014000D03*
Y0013000D03*
Y0012000D03*
Y0023250D03*
Y0022250D03*
Y0021250D03*
G54D46*
Y0015000D03*
Y0024250D03*
G54D49*
X0011250Y0004125D03*
X0010250D03*
X0009250D03*
X0008250D03*
X0007250D03*
X0006250D03*
X0005250D03*
G54D50*
X0037750Y0018750D03*
Y0017000D03*
X0012250Y0004125D03*
G54D52*
X0037750Y0019750D03*
Y0020750D03*
Y0021750D03*
Y0022750D03*
Y0023750D03*
Y0016000D03*
G54D69*
X0030750Y0003500D03*
Y0004500D03*
G54D70*
Y0002500D03*
M02*
