*
G04 Mass Parameters ***
*
G04 Image ***
*
%IND:\DO NHIET DO VA DO AM\SHT11 - MEGA32A\SCHEMATIC_LAYOUT_SHT11\PCB-SHT11-FULL-SEND\PCB-SHT11-MCU\PCB-SHT11-MCU-LAYOUT\PCB-SHT11-MCU.SMB*%
%ICAS*%
%MOIN*%
%IPPOS*%
%ASAXBY*%
G74*%FSLAN2X34Y34*%
*
G04 Aperture Definitions ***
*
%ADD10C,0.0500*%
%ADD11C,0.0020*%
%ADD12R,0.0500X0.0500*%
%ADD13C,0.0800*%
%ADD14R,0.0800X0.0800*%
%ADD15C,0.0600*%
%ADD16R,0.0600X0.0600*%
%ADD17O,0.0950X0.0650*%
%ADD18R,0.0950X0.0650*%
%ADD19C,0.1000*%
%ADD20R,0.1000X0.1000*%
%ADD21O,0.0650X0.0650*%
%ADD22R,0.0650X0.0650*%
%ADD23C,0.1260*%
%ADD24C,0.0650*%
%ADD25C,0.1575*%
%ADD26O,0.0750X0.0900*%
%ADD27R,0.0750X0.0900*%
%ADD28O,0.0949X0.0649*%
%ADD29C,0.0790*%
%ADD30O,0.0850X0.0700*%
%ADD31R,0.0850X0.0700*%
%ADD32C,0.0600*%
%ADD33C,0.0250*%
%ADD34C,0.0600*%
%ADD35C,0.0200*%
%ADD36C,0.0787*%
%ADD37C,0.0010*%
%ADD38C,0.0100*%
%ADD39C,0.0550*%
%ADD40R,0.0550X0.0550*%
%ADD41C,0.0880*%
%ADD42R,0.0880X0.0880*%
%ADD43C,0.0680*%
%ADD44R,0.0680X0.0680*%
%ADD45O,0.1030X0.0730*%
%ADD46R,0.1030X0.0730*%
%ADD47C,0.1080*%
%ADD48R,0.1080X0.1080*%
%ADD49O,0.0730X0.0730*%
%ADD50R,0.0730X0.0730*%
%ADD51C,0.1338*%
%ADD52C,0.0730*%
%ADD53C,0.1650*%
%ADD54O,0.0830X0.0980*%
%ADD55R,0.0830X0.0980*%
%ADD56O,0.1027X0.0728*%
%ADD57C,0.0870*%
%ADD58O,0.0930X0.0780*%
%ADD59R,0.0930X0.0780*%
%ADD60C,0.0650*%
*
G04 Plot Data ***
*
G54D11*
G01X0027702Y0024851D02*
X0027676D01*
X0027088Y0025439D02*
X0027689Y0024838D01*
Y0026041D02*
X0027088Y0025439D01*
X0027689Y0026041D02*
X0028291Y0025439D01*
X0027689Y0024838D01*
X0028268Y0025461D02*
Y0025417D01*
X0028251Y0025479D02*
Y0025399D01*
X0028233Y0025497D02*
Y0025382D01*
X0028215Y0025514D02*
Y0025364D01*
X0028198Y0025532D02*
Y0025346D01*
X0028180Y0025550D02*
Y0025329D01*
X0028162Y0025567D02*
Y0025311D01*
X0028145Y0025585D02*
Y0025293D01*
X0028127Y0025603D02*
Y0025276D01*
X0028109Y0025620D02*
Y0025258D01*
X0028092Y0025638D02*
Y0025240D01*
X0028074Y0025656D02*
Y0025223D01*
X0028056Y0025673D02*
Y0025205D01*
X0028039Y0025691D02*
Y0025187D01*
X0028021Y0025709D02*
Y0025170D01*
X0028003Y0025727D02*
Y0025152D01*
X0027985Y0025744D02*
Y0025134D01*
X0027968Y0025762D02*
Y0025117D01*
X0027950Y0025780D02*
Y0025099D01*
X0027932Y0025797D02*
Y0025081D01*
X0027915Y0025815D02*
Y0025064D01*
X0027897Y0025833D02*
Y0025046D01*
X0027879Y0025850D02*
Y0025028D01*
X0027862Y0025868D02*
Y0025011D01*
X0027844Y0025886D02*
Y0024993D01*
X0027826Y0025903D02*
Y0024975D01*
X0027809Y0025921D02*
Y0024958D01*
X0027791Y0025939D02*
Y0024940D01*
X0027773Y0025956D02*
Y0024922D01*
X0027756Y0025974D02*
Y0024905D01*
X0027738Y0025992D02*
Y0024887D01*
X0027720Y0026010D02*
Y0024869D01*
X0027702Y0026027D02*
Y0024851D01*
X0027685Y0026036D02*
Y0024843D01*
X0027667Y0026018D02*
Y0024860D01*
X0027649Y0026001D02*
Y0024878D01*
X0027632Y0025983D02*
Y0024896D01*
X0027614Y0025965D02*
Y0024913D01*
X0027596Y0025948D02*
Y0024931D01*
X0027579Y0025930D02*
Y0024949D01*
X0027561Y0025912D02*
Y0024966D01*
X0027543Y0025895D02*
Y0024984D01*
X0027526Y0025877D02*
Y0025002D01*
X0027508Y0025859D02*
Y0025019D01*
X0027490Y0025841D02*
Y0025037D01*
X0027473Y0025824D02*
Y0025055D01*
X0027455Y0025806D02*
Y0025072D01*
X0027437Y0025788D02*
Y0025090D01*
X0027419Y0025771D02*
Y0025108D01*
X0027402Y0025753D02*
Y0025126D01*
X0027384Y0025735D02*
Y0025143D01*
X0027366Y0025718D02*
Y0025161D01*
X0027349Y0025700D02*
Y0025179D01*
X0027331Y0025682D02*
Y0025196D01*
X0027313Y0025664D02*
Y0025214D01*
X0027296Y0025647D02*
Y0025232D01*
X0027278Y0025629D02*
Y0025249D01*
X0027260Y0025611D02*
Y0025267D01*
X0027243Y0025594D02*
Y0025285D01*
X0027225Y0025576D02*
Y0025302D01*
X0027207Y0025558D02*
Y0025320D01*
X0027190Y0025541D02*
Y0025338D01*
X0027172Y0025523D02*
Y0025355D01*
X0027154Y0025505D02*
Y0025373D01*
X0027136Y0025488D02*
Y0025391D01*
X0027119Y0025470D02*
Y0025409D01*
X0027101Y0025452D02*
Y0025426D01*
X0027711Y0026018D02*
X0027667D01*
X0027729Y0026001D02*
X0027649D01*
X0027747Y0025983D02*
X0027632D01*
X0027764Y0025965D02*
X0027614D01*
X0027782Y0025948D02*
X0027596D01*
X0027800Y0025930D02*
X0027579D01*
X0027817Y0025912D02*
X0027561D01*
X0027835Y0025895D02*
X0027543D01*
X0027853Y0025877D02*
X0027526D01*
X0027870Y0025859D02*
X0027508D01*
X0027888Y0025842D02*
X0027490D01*
X0027906Y0025824D02*
X0027473D01*
X0027923Y0025806D02*
X0027455D01*
X0027941Y0025789D02*
X0027437D01*
X0027959Y0025771D02*
X0027420D01*
X0027977Y0025753D02*
X0027402D01*
X0027994Y0025735D02*
X0027384D01*
X0028012Y0025718D02*
X0027367D01*
X0028030Y0025700D02*
X0027349D01*
X0028047Y0025682D02*
X0027331D01*
X0028065Y0025665D02*
X0027314D01*
X0028083Y0025647D02*
X0027296D01*
X0028100Y0025629D02*
X0027278D01*
X0028118Y0025612D02*
X0027261D01*
X0028136Y0025594D02*
X0027243D01*
X0028153Y0025576D02*
X0027225D01*
X0028171Y0025559D02*
X0027208D01*
X0028189Y0025541D02*
X0027190D01*
X0028206Y0025523D02*
X0027172D01*
X0028224Y0025506D02*
X0027155D01*
X0028242Y0025488D02*
X0027137D01*
X0028260Y0025470D02*
X0027119D01*
X0028277Y0025452D02*
X0027101D01*
X0028286Y0025435D02*
X0027093D01*
X0028268Y0025417D02*
X0027110D01*
X0028251Y0025399D02*
X0027128D01*
X0028233Y0025382D02*
X0027146D01*
X0028215Y0025364D02*
X0027163D01*
X0028198Y0025346D02*
X0027181D01*
X0028180Y0025329D02*
X0027199D01*
X0028162Y0025311D02*
X0027216D01*
X0028145Y0025293D02*
X0027234D01*
X0028127Y0025276D02*
X0027252D01*
X0028109Y0025258D02*
X0027269D01*
X0028091Y0025240D02*
X0027287D01*
X0028074Y0025223D02*
X0027305D01*
X0028056Y0025205D02*
X0027322D01*
X0028038Y0025187D02*
X0027340D01*
X0028021Y0025169D02*
X0027358D01*
X0028003Y0025152D02*
X0027376D01*
X0027985Y0025134D02*
X0027393D01*
X0027968Y0025116D02*
X0027411D01*
X0027950Y0025099D02*
X0027429D01*
X0027932Y0025081D02*
X0027446D01*
X0027914Y0025063D02*
X0027464D01*
X0027897Y0025046D02*
X0027482D01*
X0027879Y0025028D02*
X0027499D01*
X0027861Y0025010D02*
X0027517D01*
X0027844Y0024993D02*
X0027535D01*
X0027826Y0024975D02*
X0027552D01*
X0027808Y0024957D02*
X0027570D01*
X0027791Y0024940D02*
X0027588D01*
X0027773Y0024922D02*
X0027605D01*
X0027755Y0024904D02*
X0027623D01*
X0027738Y0024886D02*
X0027641D01*
X0027720Y0024869D02*
X0027659D01*
X0011466Y0018615D02*
Y0018591D01*
X0011449Y0018633D02*
Y0018574D01*
X0011431Y0018650D02*
Y0018556D01*
X0011413Y0018668D02*
Y0018538D01*
X0011396Y0018686D02*
Y0018521D01*
X0011378Y0018703D02*
Y0018503D01*
X0011360Y0018721D02*
Y0018485D01*
X0011342Y0018739D02*
Y0018467D01*
X0011325Y0018757D02*
Y0018450D01*
X0011307Y0018774D02*
Y0018432D01*
X0011289Y0018792D02*
Y0018414D01*
X0011272Y0018810D02*
Y0018397D01*
X0011254Y0018827D02*
Y0018379D01*
X0011236Y0018845D02*
Y0018361D01*
X0011219Y0018863D02*
Y0018344D01*
X0011201Y0018880D02*
Y0018326D01*
X0011183Y0018898D02*
Y0018308D01*
X0011166Y0018916D02*
Y0018291D01*
X0011148Y0018933D02*
Y0018273D01*
X0011130Y0018951D02*
Y0018255D01*
X0011113Y0018969D02*
Y0018238D01*
X0011095Y0018970D02*
Y0018236D01*
X0011077Y0018952D02*
Y0018254D01*
X0011059Y0018934D02*
Y0018272D01*
X0011042Y0018917D02*
Y0018290D01*
X0011024Y0018899D02*
Y0018307D01*
X0011006Y0018881D02*
Y0018325D01*
X0010989Y0018864D02*
Y0018343D01*
X0010971Y0018846D02*
Y0018360D01*
X0010953Y0018828D02*
Y0018378D01*
X0010936Y0018811D02*
Y0018396D01*
X0010918Y0018793D02*
Y0018413D01*
X0010900Y0018775D02*
Y0018431D01*
X0010883Y0018758D02*
Y0018449D01*
X0010865Y0018740D02*
Y0018466D01*
X0010847Y0018722D02*
Y0018484D01*
X0010830Y0018705D02*
Y0018502D01*
X0010812Y0018687D02*
Y0018519D01*
X0010794Y0018669D02*
Y0018537D01*
X0010776Y0018651D02*
Y0018555D01*
X0010759Y0018634D02*
Y0018573D01*
X0010741Y0018616D02*
Y0018590D01*
X0011115Y0018966D02*
X0011091D01*
X0011133Y0018949D02*
X0011074D01*
X0011150Y0018931D02*
X0011056D01*
X0011168Y0018913D02*
X0011038D01*
X0011186Y0018896D02*
X0011021D01*
X0011203Y0018878D02*
X0011003D01*
X0011221Y0018860D02*
X0010985D01*
X0011239Y0018842D02*
X0010967D01*
X0011257Y0018825D02*
X0010950D01*
X0011274Y0018807D02*
X0010932D01*
X0011292Y0018789D02*
X0010914D01*
X0011310Y0018772D02*
X0010897D01*
X0011327Y0018754D02*
X0010879D01*
X0011345Y0018736D02*
X0010861D01*
X0011363Y0018719D02*
X0010844D01*
X0011380Y0018701D02*
X0010826D01*
X0011398Y0018683D02*
X0010808D01*
X0011416Y0018666D02*
X0010791D01*
X0011433Y0018648D02*
X0010773D01*
X0011451Y0018630D02*
X0010755D01*
X0011469Y0018613D02*
X0010738D01*
X0011470Y0018595D02*
X0010736D01*
X0011452Y0018577D02*
X0010754D01*
X0011434Y0018559D02*
X0010772D01*
X0011417Y0018542D02*
X0010790D01*
X0011399Y0018524D02*
X0010807D01*
X0011381Y0018506D02*
X0010825D01*
X0011364Y0018489D02*
X0010843D01*
X0011346Y0018471D02*
X0010860D01*
X0011328Y0018453D02*
X0010878D01*
X0011311Y0018436D02*
X0010896D01*
X0011293Y0018418D02*
X0010913D01*
X0011275Y0018400D02*
X0010931D01*
X0011258Y0018383D02*
X0010949D01*
X0011240Y0018365D02*
X0010966D01*
X0011222Y0018347D02*
X0010984D01*
X0011205Y0018330D02*
X0011002D01*
X0011187Y0018312D02*
X0011019D01*
X0011169Y0018294D02*
X0011037D01*
X0011151Y0018276D02*
X0011055D01*
X0011134Y0018259D02*
X0011073D01*
X0011116Y0018241D02*
X0011090D01*
X0010728Y0018603D02*
X0011103Y0018228D01*
Y0018978D02*
X0010728Y0018603D01*
X0011103Y0018978D02*
X0011478Y0018603D01*
X0011103Y0018228D01*
G54D39*
X0028500Y0003500D03*
X0002993Y0017393D03*
X0017250Y0020500D03*
X0011810Y0019310D03*
G54D40*
X0028500Y0004500D03*
X0002993Y0018393D03*
X0017250Y0019500D03*
G54D41*
X0023500Y0003250D03*
G54D42*
X0025500D03*
G54D43*
X0025750Y0023000D03*
X0024750D03*
X0023750D03*
X0022750D03*
X0021750D03*
X0020750D03*
X0019750D03*
X0018750D03*
X0017750D03*
X0016750D03*
X0015750D03*
X0014750D03*
X0013750D03*
X0012750D03*
X0011750D03*
X0010750D03*
X0009750D03*
X0008750D03*
X0007750D03*
Y0017000D03*
X0008750D03*
X0009750D03*
X0010750D03*
X0011750D03*
X0012750D03*
X0013750D03*
X0014750D03*
X0015750D03*
X0016750D03*
X0017750D03*
X0018750D03*
X0019750D03*
X0020750D03*
X0021750D03*
X0022750D03*
X0023750D03*
X0024750D03*
X0025750D03*
X0026750D03*
X0018750Y0028500D03*
X0022750D03*
X0032500Y0008000D03*
X0028500D03*
X0023000Y0024000D03*
X0027000D03*
X0004500Y0014000D03*
Y0010000D03*
X0018750Y0017750D03*
Y0021750D03*
X0024750Y0011750D03*
Y0015750D03*
X0023750Y0011750D03*
Y0015750D03*
X0022750Y0011750D03*
Y0015750D03*
X0021750Y0011750D03*
Y0015750D03*
X0020750Y0011750D03*
Y0015750D03*
X0019750Y0011750D03*
Y0015750D03*
X0028500Y0005750D03*
X0017750Y0024000D03*
X0034750Y0008000D03*
G54D44*
X0026750Y0023000D03*
X0028500Y0006750D03*
X0018695Y0024000D03*
X0033805Y0008000D03*
G54D45*
X0037750Y0012250D03*
X0003000Y0014000D03*
Y0013000D03*
Y0012000D03*
Y0023250D03*
Y0022250D03*
Y0021250D03*
G54D46*
X0037750Y0013250D03*
X0003000Y0015000D03*
Y0024250D03*
G54D47*
X0017463Y0003500D03*
G54D48*
X0019037D03*
G54D49*
X0011250Y0004125D03*
X0010250D03*
X0009250D03*
X0008250D03*
X0007250D03*
X0006250D03*
X0005250D03*
G54D50*
X0037750Y0018750D03*
Y0017000D03*
X0012250Y0004125D03*
G54D51*
X0001250Y0001500D03*
X0038750D03*
G54D52*
X0037750Y0019750D03*
Y0020750D03*
Y0021750D03*
Y0022750D03*
Y0023750D03*
Y0016000D03*
G54D53*
X0001750Y0030016D03*
X0038361D03*
Y0008364D03*
X0001750D03*
G54D54*
X0005750Y0030000D03*
X0006750D03*
X0007750D03*
X0008750D03*
X0009750D03*
X0010750D03*
X0011750D03*
X0012750D03*
X0013750D03*
X0014750D03*
X0015750D03*
X0016750D03*
X0017750D03*
X0018750D03*
X0019750D03*
G54D55*
X0004750D03*
G54D56*
X0001437Y0004187D03*
X0003437D03*
X0002437Y0005812D03*
G54D57*
X0015150Y0020000D03*
X0013150D03*
X0029811Y0027561D03*
G54D58*
X0030750Y0003500D03*
Y0004500D03*
G54D59*
Y0002500D03*
G54D60*
X0004000Y0016125D03*
X0006000D03*
X0028625Y0016375D03*
Y0018500D03*
X0037750Y0014750D03*
X0039375D03*
M02*
