*
G04 Mass Parameters ***
*
G04 Image ***
*
%IND:\DO NHIET DO VA DO AM\SHT11 - MEGA32A\SCHEMATIC_LAYOUT_SHT11\PCB-SHT11-FULL-SEND\PCB-SHT11-MCU\PCB-SHT11-MCU-LAYOUT\PCB-SHT11-MCU.SST*%
%ICAS*%
%MOIN*%
%IPPOS*%
%ASAXBY*%
G74*%FSLAN2X34Y34*%
*
G04 Aperture Definitions ***
*
%ADD10C,0.0500*%
%ADD11C,0.0020*%
%ADD12R,0.0500X0.0500*%
%ADD13C,0.0800*%
%ADD14R,0.0800X0.0800*%
%ADD15C,0.0600*%
%ADD16R,0.0600X0.0600*%
%ADD17O,0.0950X0.0650*%
%ADD18R,0.0950X0.0650*%
%ADD19C,0.1000*%
%ADD20R,0.1000X0.1000*%
%ADD21O,0.0650X0.0650*%
%ADD22R,0.0650X0.0650*%
%ADD23C,0.1260*%
%ADD24C,0.0650*%
%ADD25C,0.1575*%
%ADD26O,0.0750X0.0900*%
%ADD27R,0.0750X0.0900*%
%ADD28O,0.0949X0.0649*%
%ADD29C,0.0790*%
%ADD30O,0.0850X0.0700*%
%ADD31R,0.0850X0.0700*%
%ADD32C,0.0600*%
%ADD33C,0.0250*%
%ADD34C,0.0600*%
%ADD35C,0.0200*%
%ADD36C,0.0787*%
%ADD37C,0.0010*%
%ADD38C,0.0100*%
%ADD39C,0.0550*%
%ADD40R,0.0550X0.0550*%
%ADD41C,0.0880*%
%ADD42R,0.0880X0.0880*%
%ADD43C,0.0680*%
%ADD44R,0.0680X0.0680*%
%ADD45O,0.1030X0.0730*%
%ADD46R,0.1030X0.0730*%
%ADD47C,0.1080*%
%ADD48R,0.1080X0.1080*%
%ADD49O,0.0730X0.0730*%
%ADD50R,0.0730X0.0730*%
%ADD51C,0.1338*%
%ADD52C,0.0730*%
%ADD53C,0.1650*%
%ADD54O,0.0830X0.0980*%
%ADD55R,0.0830X0.0980*%
%ADD56O,0.1027X0.0728*%
%ADD57C,0.0870*%
%ADD58O,0.0930X0.0780*%
%ADD59R,0.0930X0.0780*%
%ADD60C,0.0650*%
%ADD61C,0.0004*%
%ADD62C,0.0080*%
%ADD63C,0.0050*%
%ADD64C,0.0079*%
%ADD65C,0.0030*%
%ADD66C,0.0118*%
%ADD67C,0.0300*%
%ADD68C,0.0060*%
*
G04 Plot Data ***
*
G54D11*
G01X0024500Y0003160D02*
X0022825Y0001485D01*
X0023470Y0001000D02*
X0024500Y0000750D01*
X0023470Y0001000D02*
X0023460D01*
X0023360Y0001100D02*
X0023460Y0001000D01*
X0023360Y0001100D02*
X0023290D01*
X0023220Y0001170D02*
X0023290Y0001100D01*
X0023220Y0001170D02*
X0023140D01*
X0022690Y0001620D02*
X0023140Y0001170D01*
X0022690Y0001650D02*
Y0001620D01*
X0022370Y0001970D02*
X0022690Y0001650D01*
X0022370Y0002060D02*
Y0001970D01*
X0022290Y0002140D02*
X0022370Y0002060D01*
X0022290Y0002220D02*
Y0002140D01*
X0022220Y0002290D02*
X0022290Y0002220D01*
X0022220Y0002360D02*
Y0002290D01*
X0022160Y0002420D02*
X0022220Y0002360D01*
X0022160Y0002600D02*
Y0002420D01*
X0022090Y0002670D02*
X0022160Y0002600D01*
X0022090Y0003720D02*
Y0002670D01*
X0022150Y0003780D02*
X0022090Y0003720D01*
X0022150Y0003950D02*
Y0003780D01*
X0022210Y0004010D02*
X0022150Y0003950D01*
X0022210Y0004170D02*
Y0004010D01*
X0022280Y0004170D02*
X0022210D01*
X0022280Y0004300D02*
Y0004170D01*
X0022430Y0004450D02*
X0022280Y0004300D01*
X0022430Y0004450D02*
X0022350D01*
X0022480Y0004580D02*
X0022350Y0004450D01*
X0022480Y0004620D02*
Y0004580D01*
Y0004620D02*
X0022520Y0004580D01*
Y0004710D02*
Y0004580D01*
X0022990Y0005180D02*
X0022520Y0004710D01*
X0023040Y0005180D02*
X0022990D01*
X0023210Y0005350D02*
X0023040Y0005180D01*
X0023260Y0005350D02*
X0023210D01*
X0023340Y0005430D02*
X0023260Y0005350D01*
X0023430Y0005430D02*
X0023340D01*
X0023490Y0005490D02*
X0023430Y0005430D01*
X0023590Y0005490D02*
X0023490D01*
X0023630Y0005530D02*
X0023590Y0005490D01*
X0023660Y0005530D02*
X0023630D01*
X0023720Y0005590D02*
X0023660Y0005530D01*
X0023830Y0005590D02*
X0023720D01*
X0023880Y0005640D02*
X0023830Y0005590D01*
X0024120Y0005640D02*
X0023880D01*
X0024170Y0005690D02*
X0024120Y0005640D01*
X0024500Y0005690D02*
X0024170D01*
X0024500D02*
Y0000750D01*
X0023229Y0005350D02*
X0022520Y0004641D01*
X0023387Y0005430D02*
X0022407Y0004450D01*
X0023526Y0005490D02*
X0022280Y0004244D01*
X0023645Y0005530D02*
X0022210Y0004095D01*
X0023783Y0005590D02*
X0022210Y0004017D01*
X0023912Y0005640D02*
X0022150Y0003878D01*
X0023991Y0005640D02*
X0022150Y0003799D01*
X0024069Y0005640D02*
X0022090Y0003661D01*
X0024198Y0005690D02*
X0022090Y0003582D01*
X0024277Y0005690D02*
X0022090Y0003503D01*
X0024355Y0005690D02*
X0022090Y0003425D01*
X0024434Y0005690D02*
X0022090Y0003346D01*
X0024500Y0005677D02*
X0022090Y0003267D01*
X0024500Y0005599D02*
X0022090Y0003189D01*
X0024500Y0005520D02*
X0022090Y0003110D01*
X0024500Y0005441D02*
X0022090Y0003031D01*
X0024500Y0005363D02*
X0022090Y0002953D01*
X0024500Y0005284D02*
X0022090Y0002874D01*
X0024500Y0005205D02*
X0022090Y0002795D01*
X0024500Y0005127D02*
X0022090Y0002717D01*
X0024500Y0005048D02*
X0022106Y0002654D01*
X0024500Y0004969D02*
X0022145Y0002615D01*
X0024500Y0004891D02*
X0022160Y0002551D01*
X0024500Y0004812D02*
X0022160Y0002472D01*
X0024500Y0004733D02*
X0022173Y0002407D01*
X0024500Y0004655D02*
X0022213Y0002367D01*
X0024500Y0004576D02*
X0022220Y0002296D01*
X0024500Y0004497D02*
X0022256Y0002254D01*
X0024500Y0004419D02*
X0022290Y0002209D01*
X0024500Y0004340D02*
X0022295Y0002135D01*
X0024500Y0004261D02*
X0022334Y0002096D01*
X0024500Y0004183D02*
X0022370Y0002053D01*
X0024500Y0004104D02*
X0022370Y0001974D01*
X0024500Y0004025D02*
X0022407Y0001933D01*
X0024500Y0003947D02*
X0022447Y0001893D01*
X0024500Y0003868D02*
X0022486Y0001854D01*
X0024500Y0003789D02*
X0022525Y0001815D01*
X0024500Y0003711D02*
X0022565Y0001775D01*
X0024500Y0003632D02*
X0022604Y0001736D01*
X0024500Y0003553D02*
X0022643Y0001697D01*
X0024500Y0003475D02*
X0022683Y0001657D01*
X0024500Y0003396D02*
X0022707Y0001603D01*
X0024500Y0003317D02*
X0022746Y0001564D01*
X0024500Y0003239D02*
X0022786Y0001524D01*
X0024500Y0000800D02*
X0024460Y0000760D01*
X0024500Y0000879D02*
X0024396Y0000775D01*
X0024500Y0000957D02*
X0024333Y0000790D01*
X0024500Y0001036D02*
X0024270Y0000806D01*
X0024500Y0001115D02*
X0024206Y0000821D01*
X0024500Y0001193D02*
X0024143Y0000836D01*
X0024500Y0001272D02*
X0024080Y0000852D01*
X0024500Y0001351D02*
X0024016Y0000867D01*
X0024500Y0001429D02*
X0023953Y0000883D01*
X0024500Y0001508D02*
X0023890Y0000898D01*
X0024500Y0001587D02*
X0023827Y0000913D01*
X0024500Y0001665D02*
X0023763Y0000929D01*
X0024500Y0001744D02*
X0023700Y0000944D01*
X0024500Y0001823D02*
X0023637Y0000959D01*
X0024500Y0001901D02*
X0023573Y0000975D01*
X0024500Y0001980D02*
X0023510Y0000990D01*
X0024500Y0002059D02*
X0023451Y0001009D01*
X0024500Y0002137D02*
X0023411Y0001049D01*
X0024500Y0002216D02*
X0023372Y0001088D01*
X0024500Y0002295D02*
X0023305Y0001100D01*
X0024500Y0002373D02*
X0023258Y0001132D01*
X0024500Y0002452D02*
X0023219Y0001171D01*
X0024500Y0002531D02*
X0023140Y0001170D01*
X0024500Y0002609D02*
X0023100Y0001210D01*
X0024500Y0002688D02*
X0023061Y0001249D01*
X0024500Y0002767D02*
X0023022Y0001288D01*
X0024500Y0002845D02*
X0022982Y0001328D01*
X0024500Y0002924D02*
X0022943Y0001367D01*
X0024500Y0003003D02*
X0022904Y0001406D01*
X0024500Y0003081D02*
X0022864Y0001446D01*
X0039353Y0030951D02*
Y0007351D01*
X0000806D01*
Y0030990D01*
X0039350D01*
X0039353Y0030951D01*
X0000960Y0026000D02*
X0039210D01*
Y0012250D01*
X0000960D01*
Y0026000D01*
X0018223Y0024945D02*
Y0025063D01*
Y0022936D02*
Y0024945D01*
X0034277Y0007055D02*
Y0006936D01*
Y0009063D02*
Y0007055D01*
X0024555Y0000768D02*
Y0005731D01*
G01X0017160Y0024000D02*
G03X0018223Y0022937I0001063J0000000D01*
Y0025063D02*
G03X0017160Y0024000I0000000J0001063D01*
G01X0035341Y0008000D02*
G03X0034277Y0009064I0001064J0000000D01*
Y0006936D02*
G03X0035341Y0008000I0000000J0001064D01*
G01X0024436Y0000766D02*
G03X0024555Y0000768I0000000J0002484D01*
G01X0021952Y0003250D02*
G03X0024436Y0000766I0002484J0000000D01*
Y0005734D02*
G03X0021952Y0003250I0000000J0002484D01*
G01X0024555Y0005731D02*
G03X0024436Y0005734I0000119J0002481D01*
G54D37*
G01X0001297Y0001827D02*
X0001374Y0001905D01*
Y0002061D01*
X0001297Y0002138D01*
X0001219D01*
X0001063Y0001983D01*
X0000908Y0002138D01*
Y0001827D01*
X0001374Y0001769D02*
Y0001613D01*
Y0001691D02*
X0000908D01*
X0000985Y0001613D01*
X0001219Y0001204D02*
X0001297D01*
X0001374Y0001243D01*
Y0001399D01*
X0001297Y0001438D01*
X0000908D01*
Y0001477D02*
Y0001321D01*
X0038874Y0002138D02*
Y0001827D01*
X0038563Y0002138D01*
X0038485D01*
X0038408Y0002100D01*
Y0001866D01*
X0038485Y0001827D01*
X0038874Y0001769D02*
Y0001613D01*
Y0001691D02*
X0038408D01*
X0038485Y0001613D01*
X0038719Y0001204D02*
X0038797D01*
X0038874Y0001243D01*
Y0001399D01*
X0038797Y0001438D01*
X0038408D01*
Y0001477D02*
Y0001321D01*
G54D38*
G01X0039733Y0011958D02*
Y0012458D01*
X0039692Y0011958D02*
X0039942D01*
X0040025Y0012125D01*
Y0012292D01*
X0039942Y0012458D01*
X0039692D01*
X0039450D02*
Y0011958D01*
X0039367Y0012042D01*
X0039200Y0012375D01*
X0039117Y0012458D01*
Y0011958D01*
X0038708Y0012208D02*
X0038875D01*
Y0012042D01*
X0038833Y0011958D01*
X0038583D01*
X0038542Y0012042D01*
Y0012375D01*
X0038583Y0012458D01*
X0038833D01*
X0038875Y0012375D01*
X0040025Y0013042D02*
X0039983Y0012958D01*
X0039733D01*
X0039692Y0013042D01*
Y0013375D01*
X0039733Y0013458D01*
X0039983D01*
X0040025Y0013375D01*
X0039450Y0013042D02*
X0039408Y0012958D01*
X0039158D01*
X0039117Y0013042D01*
Y0013375D01*
X0039158Y0013458D01*
X0039408D01*
X0039450Y0013375D01*
X0038875Y0013458D02*
Y0013292D01*
X0038708Y0012958D01*
X0038542Y0013292D01*
Y0013458D01*
X0040025Y0015792D02*
X0039983Y0015708D01*
X0039733D01*
X0039692Y0015792D01*
Y0016125D01*
X0039733Y0016208D01*
X0039983D01*
X0040025Y0016125D01*
X0039450Y0015792D02*
X0039408Y0015708D01*
X0039158D01*
X0039117Y0015792D01*
Y0016125D01*
X0039158Y0016208D01*
X0039408D01*
X0039450Y0016125D01*
X0038875Y0016208D02*
Y0016042D01*
X0038708Y0015708D01*
X0038542Y0016042D01*
Y0016208D01*
X0040025Y0017208D02*
Y0016792D01*
X0039983Y0016708D01*
X0039733D01*
X0039692Y0016792D01*
Y0017208D01*
X0039450Y0016792D02*
X0039408Y0016708D01*
X0039158D01*
X0039117Y0016792D01*
Y0017125D01*
X0039158Y0017208D01*
X0039408D01*
X0039450Y0017125D01*
X0038875Y0017208D02*
Y0017042D01*
X0038708Y0016708D01*
X0038542Y0017042D01*
Y0017208D01*
X0039733Y0018458D02*
Y0018958D01*
X0039692Y0018458D02*
X0039942D01*
X0040025Y0018625D01*
Y0018792D01*
X0039942Y0018958D01*
X0039692D01*
X0039450D02*
Y0018458D01*
X0039367Y0018542D01*
X0039200Y0018875D01*
X0039117Y0018958D01*
Y0018458D01*
X0038708Y0018708D02*
X0038875D01*
Y0018542D01*
X0038833Y0018458D01*
X0038583D01*
X0038542Y0018542D01*
Y0018875D01*
X0038583Y0018958D01*
X0038833D01*
X0038875Y0018875D01*
X0040025Y0019958D02*
Y0019542D01*
X0039983Y0019458D01*
X0039733D01*
X0039692Y0019542D01*
Y0019958D01*
X0039450Y0019542D02*
X0039408Y0019458D01*
X0039158D01*
X0039117Y0019542D01*
Y0019875D01*
X0039158Y0019958D01*
X0039408D01*
X0039450Y0019875D01*
X0038875Y0019958D02*
Y0019792D01*
X0038708Y0019458D01*
X0038542Y0019792D01*
Y0019958D01*
X0039858Y0020458D02*
Y0020958D01*
X0040025D02*
X0039692D01*
X0039450Y0020875D02*
X0039408Y0020958D01*
X0039158D01*
X0039117Y0020875D01*
Y0020792D01*
X0039158Y0020708D01*
X0039408D01*
X0039450Y0020625D01*
Y0020542D01*
X0039408Y0020458D01*
X0039158D01*
X0039117Y0020542D01*
X0038750Y0020708D02*
X0038875Y0020458D01*
X0038542Y0020708D02*
X0038792D01*
X0038875Y0020792D01*
Y0020875D01*
X0038792Y0020958D01*
X0038542D01*
Y0020458D01*
X0040025Y0021458D02*
X0039775Y0021708D01*
X0040025Y0021958D01*
X0039692D02*
Y0021458D01*
X0039450Y0021542D02*
X0039408Y0021458D01*
X0039158D01*
X0039117Y0021542D01*
Y0021875D01*
X0039158Y0021958D01*
X0039408D01*
X0039450Y0021875D01*
X0038875D02*
X0038833Y0021958D01*
X0038583D01*
X0038542Y0021875D01*
Y0021792D01*
X0038583Y0021708D01*
X0038833D01*
X0038875Y0021625D01*
Y0021542D01*
X0038833Y0021458D01*
X0038583D01*
X0038542Y0021542D01*
X0039367Y0022458D02*
X0039200D01*
X0039283D02*
Y0022958D01*
X0039367D02*
X0039200D01*
X0038875Y0022458D02*
Y0022958D01*
X0038792Y0022875D01*
X0038708Y0022708D01*
X0038625Y0022875D01*
X0038542Y0022958D01*
Y0022458D01*
X0039158Y0023583D02*
X0039117Y0023667D01*
Y0024000D01*
X0039158Y0024083D01*
X0039408D01*
X0039450Y0024000D01*
Y0023667D01*
X0039408Y0023583D01*
X0039158D01*
X0038875D02*
Y0024083D01*
X0038792Y0024000D01*
X0038708Y0023833D01*
X0038625Y0024000D01*
X0038542Y0024083D01*
Y0023583D01*
X0002258Y0024142D02*
X0002217Y0024058D01*
X0001967D01*
X0001925Y0024142D01*
Y0024475D01*
X0001967Y0024558D01*
X0002217D01*
X0002258Y0024475D01*
X0001683Y0024142D02*
X0001642Y0024058D01*
X0001392D01*
X0001350Y0024142D01*
Y0024475D01*
X0001392Y0024558D01*
X0001642D01*
X0001683Y0024475D01*
X0001108Y0024558D02*
Y0024392D01*
X0000942Y0024058D01*
X0000775Y0024392D01*
Y0024558D01*
X0001967Y0023058D02*
Y0023558D01*
X0001925Y0023058D02*
X0002175D01*
X0002258Y0023225D01*
Y0023392D01*
X0002175Y0023558D01*
X0001925D01*
X0001683D02*
Y0023058D01*
X0001600Y0023142D01*
X0001433Y0023475D01*
X0001350Y0023558D01*
Y0023058D01*
X0000942Y0023308D02*
X0001108D01*
Y0023142D01*
X0001067Y0023058D01*
X0000817D01*
X0000775Y0023142D01*
Y0023475D01*
X0000817Y0023558D01*
X0001067D01*
X0001108Y0023475D01*
X0002292Y0022058D02*
X0002000D01*
Y0022558D01*
X0001633Y0022308D02*
X0001758Y0022058D01*
X0001425Y0022308D02*
X0001675D01*
X0001758Y0022392D01*
Y0022475D01*
X0001675Y0022558D01*
X0001425D01*
Y0022058D01*
X0001017D02*
Y0022558D01*
X0001183D02*
X0000850D01*
X0000608Y0022142D02*
X0000567Y0022058D01*
X0000317D01*
X0000275Y0022142D01*
Y0022475D01*
X0000317Y0022558D01*
X0000567D01*
X0000608Y0022475D01*
X0002292Y0021058D02*
X0002000D01*
Y0021558D01*
X0001633Y0021308D02*
X0001758Y0021058D01*
X0001425Y0021308D02*
X0001675D01*
X0001758Y0021392D01*
Y0021475D01*
X0001675Y0021558D01*
X0001425D01*
Y0021058D01*
X0001017D02*
Y0021558D01*
X0001183D02*
X0000850D01*
X0000608Y0021142D02*
X0000567Y0021058D01*
X0000317D01*
X0000275Y0021142D01*
Y0021475D01*
X0000317Y0021558D01*
X0000567D01*
X0000608Y0021475D01*
X0001967Y0014808D02*
Y0015308D01*
X0001925Y0014808D02*
X0002175D01*
X0002258Y0014975D01*
Y0015142D01*
X0002175Y0015308D01*
X0001925D01*
X0001683D02*
Y0014808D01*
X0001600Y0014892D01*
X0001433Y0015225D01*
X0001350Y0015308D01*
Y0014808D01*
X0000942Y0015058D02*
X0001108D01*
Y0014892D01*
X0001067Y0014808D01*
X0000817D01*
X0000775Y0014892D01*
Y0015225D01*
X0000817Y0015308D01*
X0001067D01*
X0001108Y0015225D01*
X0002208Y0013975D02*
X0001875D01*
X0002208Y0013808D02*
Y0014058D01*
X0002083Y0014308D01*
X0002000D01*
X0001875Y0014058D01*
Y0013808D01*
X0001467D02*
Y0014308D01*
X0001633D02*
X0001300D01*
X0001058Y0013975D02*
X0000725D01*
X0001058Y0013808D02*
Y0014058D01*
X0000933Y0014308D01*
X0000850D01*
X0000725Y0014058D01*
Y0013808D01*
X0000192D02*
Y0014308D01*
X0000150Y0013808D02*
X0000400D01*
X0000483Y0013975D01*
Y0014142D01*
X0000400Y0014308D01*
X0000150D01*
X0002258Y0012808D02*
X0002008Y0013058D01*
X0002258Y0013308D01*
X0001925D02*
Y0012808D01*
X0001683Y0012892D02*
X0001642Y0012808D01*
X0001392D01*
X0001350Y0012892D01*
Y0013225D01*
X0001392Y0013308D01*
X0001642D01*
X0001683Y0013225D01*
X0001108D02*
X0001067Y0013308D01*
X0000817D01*
X0000775Y0013225D01*
Y0013142D01*
X0000817Y0013058D01*
X0001067D01*
X0001108Y0012975D01*
Y0012892D01*
X0001067Y0012808D01*
X0000817D01*
X0000775Y0012892D01*
X0002258Y0011892D02*
X0002217Y0011808D01*
X0001967D01*
X0001925Y0011892D01*
Y0012225D01*
X0001967Y0012308D01*
X0002217D01*
X0002258Y0012225D01*
X0001683Y0011892D02*
X0001642Y0011808D01*
X0001392D01*
X0001350Y0011892D01*
Y0012225D01*
X0001392Y0012308D01*
X0001642D01*
X0001683Y0012225D01*
X0001108Y0012308D02*
Y0012142D01*
X0000942Y0011808D01*
X0000775Y0012142D01*
Y0012308D01*
X0020683Y0002442D02*
X0020350D01*
X0020517Y0002275D02*
Y0002608D01*
X0020767Y0002850D02*
X0020267D01*
X0020350Y0002933D01*
X0020683Y0003100D01*
X0020767Y0003183D01*
X0020267D01*
Y0003425D02*
Y0003592D01*
Y0003508D02*
X0020767D01*
Y0003425D02*
Y0003592D01*
Y0003917D02*
X0020600D01*
X0020267Y0004083D01*
X0020600Y0004250D01*
X0020767D01*
X0005025Y0002058D02*
X0005525D01*
Y0001892D02*
Y0002225D01*
X0005275Y0002550D02*
Y0002800D01*
X0005025Y0002467D02*
Y0002800D01*
X0005525D01*
Y0002467D01*
X0005442Y0003042D02*
X0005525Y0003083D01*
Y0003333D01*
X0005442Y0003375D01*
X0005358D01*
X0005275Y0003333D01*
Y0003083D01*
X0005192Y0003042D01*
X0005108D01*
X0005025Y0003083D01*
Y0003333D01*
X0005108Y0003375D01*
X0006275Y0001400D02*
Y0001650D01*
X0006025Y0001317D02*
Y0001650D01*
X0006525D01*
Y0001317D01*
X0006025Y0002183D02*
X0006525D01*
X0006025Y0002225D02*
Y0001975D01*
X0006192Y0001892D01*
X0006358D01*
X0006525Y0001975D01*
Y0002225D01*
X0006025Y0002758D02*
X0006108Y0002800D01*
X0006442D01*
X0006525Y0002758D01*
Y0002508D01*
X0006442Y0002467D01*
X0006108D01*
X0006025Y0002508D01*
Y0002758D01*
Y0003042D02*
X0006525D01*
X0006442Y0003125D01*
X0006275Y0003208D01*
X0006442Y0003292D01*
X0006525Y0003375D01*
X0006025D01*
X0007275Y0002800D02*
Y0002550D01*
X0007358Y0002467D01*
X0007442D01*
X0007525Y0002550D01*
Y0002800D01*
X0007025D01*
X0007525Y0003042D02*
X0007108D01*
X0007025Y0003083D01*
Y0003333D01*
X0007108Y0003375D01*
X0007525D01*
X0008525Y0001317D02*
X0008025D01*
X0008108Y0001400D01*
X0008442Y0001567D01*
X0008525Y0001650D01*
X0008025D01*
X0008525Y0001892D02*
X0008108D01*
X0008025Y0001933D01*
X0008275Y0002058D01*
X0008358D02*
X0008275D01*
X0008025Y0002183D01*
X0008108Y0002225D01*
X0008525D01*
X0008025Y0002758D02*
X0008108Y0002800D01*
X0008442D01*
X0008525Y0002758D01*
Y0002508D01*
X0008442Y0002467D01*
X0008108D01*
X0008025Y0002508D01*
Y0002758D01*
Y0003333D02*
X0008525D01*
X0008025Y0003375D02*
Y0003125D01*
X0008192Y0003042D01*
X0008358D01*
X0008525Y0003125D01*
Y0003375D01*
X0009025Y0002467D02*
X0009275Y0002717D01*
X0009525Y0002467D01*
Y0002800D02*
X0009025D01*
Y0003333D02*
X0009108Y0003375D01*
X0009442D01*
X0009525Y0003333D01*
Y0003083D01*
X0009442Y0003042D01*
X0009108D01*
X0009025Y0003083D01*
Y0003333D01*
X0010025Y0000208D02*
Y0000500D01*
X0010525D01*
X0010275Y0000825D02*
Y0001075D01*
X0010025Y0000742D02*
Y0001075D01*
X0010525D01*
Y0000742D01*
X0010108Y0001317D02*
X0010025Y0001358D01*
Y0001608D01*
X0010108Y0001650D01*
X0010442D01*
X0010525Y0001608D01*
Y0001358D01*
X0010442Y0001317D01*
X0010525Y0001892D02*
X0010025D01*
X0010108Y0001975D01*
X0010442Y0002142D01*
X0010525Y0002225D01*
X0010025D01*
X0010192Y0002467D02*
Y0002800D01*
X0010025Y0002467D02*
X0010275D01*
X0010525Y0002592D01*
Y0002675D01*
X0010275Y0002800D01*
X0010025D01*
X0010108Y0003042D02*
X0010025Y0003083D01*
Y0003333D01*
X0010108Y0003375D01*
X0010442D01*
X0010525Y0003333D01*
Y0003083D01*
X0010442Y0003042D01*
X0011025Y0000908D02*
X0011525D01*
Y0000742D02*
Y0001075D01*
X0011275Y0001400D02*
Y0001650D01*
X0011025Y0001317D02*
Y0001650D01*
X0011525D01*
Y0001317D01*
X0011442Y0001892D02*
X0011525Y0001933D01*
Y0002183D01*
X0011442Y0002225D01*
X0011358D01*
X0011275Y0002183D01*
Y0001933D01*
X0011192Y0001892D01*
X0011108D01*
X0011025Y0001933D01*
Y0002183D01*
X0011108Y0002225D01*
X0011275Y0002550D02*
Y0002800D01*
X0011025Y0002467D02*
Y0002800D01*
X0011525D01*
Y0002467D01*
X0011275Y0003167D02*
X0011025Y0003042D01*
X0011275Y0003375D02*
Y0003125D01*
X0011358Y0003042D01*
X0011442D01*
X0011525Y0003125D01*
Y0003375D01*
X0011025D01*
X0012025Y0002183D02*
X0012525D01*
X0012025Y0002225D02*
Y0001975D01*
X0012192Y0001892D01*
X0012358D01*
X0012525Y0001975D01*
Y0002225D01*
Y0002467D02*
X0012025D01*
X0012108Y0002550D01*
X0012442Y0002717D01*
X0012525Y0002800D01*
X0012025D01*
X0012275Y0003208D02*
Y0003042D01*
X0012108D01*
X0012025Y0003083D01*
Y0003333D01*
X0012108Y0003375D01*
X0012442D01*
X0012525Y0003333D01*
Y0003083D01*
X0012442Y0003042D01*
X0016358Y0003900D02*
X0015858D01*
X0016358Y0003858D02*
Y0004108D01*
X0016192Y0004192D01*
X0016025D01*
X0015858Y0004108D01*
Y0003858D01*
Y0003617D02*
X0016358D01*
X0016275Y0003533D01*
X0015942Y0003367D01*
X0015858Y0003283D01*
X0016358D01*
X0016108Y0002875D02*
Y0003042D01*
X0016275D01*
X0016358Y0003000D01*
Y0002750D01*
X0016275Y0002708D01*
X0015942D01*
X0015858Y0002750D01*
Y0003000D01*
X0015942Y0003042D01*
X0017695Y0023292D02*
X0018029D01*
X0018549Y0023125D02*
Y0023458D01*
X0018383Y0023292D02*
X0018716D01*
X0003878Y0021456D02*
Y0021844D01*
X0004544D01*
X0004211Y0022267D02*
X0003878Y0022100D01*
X0004211Y0022544D02*
Y0022211D01*
X0004322Y0022100D01*
X0004433D01*
X0004544Y0022211D01*
Y0022544D01*
X0003878D01*
Y0023022D02*
X0004544D01*
Y0022800D02*
Y0023244D01*
X0003989Y0023500D02*
X0003878Y0023556D01*
Y0023889D01*
X0003989Y0023944D01*
X0004433D01*
X0004544Y0023889D01*
Y0023556D01*
X0004433Y0023500D01*
X0011575Y0028655D02*
X0011242D01*
X0011409Y0028989D01*
X0011492D01*
Y0028489D01*
X0011000D02*
X0010750Y0028989D01*
X0011000D02*
X0010750Y0028489D01*
X0010259D02*
X0010175Y0028572D01*
X0010134Y0028655D01*
Y0028822D01*
X0010175Y0028905D01*
X0010259Y0028989D01*
X0010342D01*
X0010425Y0028905D01*
X0010467Y0028822D01*
Y0028655D01*
X0010425Y0028572D01*
X0010342Y0028489D01*
X0010259D01*
X0009892D02*
X0009559D01*
X0009892Y0028822D01*
Y0028905D01*
X0009850Y0028989D01*
X0009600D01*
X0009559Y0028905D01*
X0009317Y0028322D02*
X0008984D01*
X0008450Y0028489D02*
Y0028989D01*
X0008409Y0028489D02*
X0008659D01*
X0008742Y0028655D01*
Y0028822D01*
X0008659Y0028989D01*
X0008409D01*
X0008167Y0028572D02*
X0008125Y0028489D01*
X0007875D01*
X0007834Y0028572D01*
Y0028905D01*
X0007875Y0028989D01*
X0008125D01*
X0008167Y0028905D01*
X0007592Y0028489D02*
X0007300D01*
Y0028989D01*
X0006301Y0028533D02*
X0006134D01*
X0006218D02*
Y0029033D01*
X0006134Y0028949D01*
X0005518Y0028533D02*
Y0029033D01*
X0005476Y0028533D02*
X0005726D01*
X0005809Y0028699D01*
Y0028866D01*
X0005726Y0029033D01*
X0005476D01*
X0005234Y0028616D02*
X0005193Y0028533D01*
X0004943D01*
X0004901Y0028616D01*
Y0028949D01*
X0004943Y0029033D01*
X0005193D01*
X0005234Y0028949D01*
X0004659Y0028533D02*
X0004368D01*
Y0029033D01*
X0003803Y0010278D02*
X0003580D01*
X0003691D02*
Y0010944D01*
X0003580Y0010833D01*
X0003214Y0010278D02*
X0002992D01*
X0003103D02*
Y0010944D01*
X0002992Y0010833D01*
X0002403Y0010278D02*
Y0010944D01*
X0002625D02*
X0002180D01*
X0001925Y0010611D02*
X0001480D01*
X0001925Y0010278D02*
Y0010944D01*
X0001480Y0010278D02*
Y0010944D01*
X0001225Y0010833D02*
X0001169Y0010944D01*
X0000836D01*
X0000780Y0010833D01*
Y0010722D01*
X0000836Y0010611D01*
X0001169D01*
X0001225Y0010500D01*
Y0010389D01*
X0001169Y0010278D01*
X0000836D01*
X0000780Y0010389D01*
X0002171Y0006729D02*
X0002254Y0006646D01*
X0002421D01*
X0002504Y0006729D01*
Y0006812D01*
X0002337Y0006979D01*
X0002504Y0007146D01*
X0002171D01*
X0001929Y0006646D02*
X0001762D01*
X0001846D02*
Y0007146D01*
X0001762Y0007062D01*
X0001312Y0006896D02*
X0001437Y0006646D01*
X0001104Y0006896D02*
X0001354D01*
X0001437Y0006979D01*
Y0007062D01*
X0001354Y0007146D01*
X0001104D01*
Y0006646D01*
X0003514Y0002847D02*
X0003264Y0003097D01*
X0003514Y0003347D01*
X0003181D02*
Y0002847D01*
X0002606Y0002931D02*
X0002647Y0002847D01*
X0002897D01*
X0002939Y0002931D01*
Y0003097D01*
X0002856Y0003181D01*
X0002606D01*
Y0003347D01*
X0002939D01*
X0034805Y0008708D02*
X0034471D01*
X0033950Y0008875D02*
Y0008542D01*
X0034117Y0008708D02*
X0033784D01*
X0001187Y0003812D02*
Y0003687D01*
X0003687D01*
Y0003812D01*
Y0004562D02*
Y0005937D01*
X0003187Y0006437D01*
X0001687D01*
X0001187Y0005937D01*
Y0004562D01*
G54D62*
G01X0017319Y0005995D02*
X0017346Y0006050D01*
Y0006106D01*
X0017319Y0006161D01*
X0017152D01*
X0017124Y0006106D01*
Y0006050D01*
X0017152Y0005995D01*
X0017319D01*
X0017346Y0005939D01*
Y0005883D01*
X0017319Y0005828D01*
X0017152D01*
X0017124Y0005883D01*
Y0005939D01*
X0017152Y0005995D01*
X0016742Y0005939D02*
Y0005883D01*
X0016770Y0005828D01*
X0016881D01*
X0016909Y0005883D01*
Y0006161D01*
X0016936D02*
X0016825D01*
X0019896Y0006057D02*
X0019979Y0005890D01*
X0019757Y0006057D02*
X0019924D01*
X0019979Y0006112D01*
Y0006168D01*
X0019924Y0006224D01*
X0019757D01*
Y0005890D01*
X0019514Y0006057D02*
X0019347D01*
X0019569Y0005890D02*
X0019347D01*
Y0006224D01*
X0019569D01*
X0019159D02*
Y0005946D01*
X0019131Y0005890D01*
X0019048Y0006057D01*
Y0006112D02*
Y0006057D01*
X0018965Y0005890D01*
X0018937Y0005946D01*
Y0006224D01*
X0018555Y0005890D02*
X0018527Y0005946D01*
Y0006168D01*
X0018555Y0006224D01*
X0018721D01*
X0018749Y0006168D01*
Y0005946D01*
X0018721Y0005890D01*
X0018555D01*
X0018117Y0006057D02*
X0018284D01*
X0018339Y0006112D01*
Y0006168D01*
X0018284Y0006224D01*
X0018117D01*
Y0005890D01*
X0009800Y0005347D02*
Y0005014D01*
X0009744Y0005069D01*
X0009633Y0005292D01*
X0009578Y0005347D01*
Y0005014D01*
X0009195D02*
X0009168Y0005069D01*
Y0005292D01*
X0009195Y0005347D01*
X0009362D01*
X0009390Y0005292D01*
Y0005069D01*
X0009362Y0005014D01*
X0009195D01*
X0008869D02*
Y0005347D01*
X0008980D02*
X0008758D01*
X0008459Y0005014D02*
Y0005347D01*
X0008570D02*
X0008348D01*
X0008160D02*
Y0005069D01*
X0008132Y0005014D01*
X0007965D01*
X0007938Y0005069D01*
Y0005347D01*
X0007555Y0005014D02*
Y0005347D01*
X0007528Y0005014D02*
X0007694D01*
X0007750Y0005069D01*
Y0005125D01*
X0007722Y0005180D01*
X0007555D02*
X0007722D01*
X0007750Y0005236D01*
Y0005292D01*
X0007694Y0005347D01*
X0007528D01*
X0026524Y0019870D02*
X0026413D01*
X0026468D02*
Y0020203D01*
X0026413Y0020148D01*
X0026169Y0020203D02*
Y0019925D01*
X0026142Y0019870D01*
X0025975D01*
X0025947Y0019925D01*
Y0020203D01*
X0037111Y0019264D02*
Y0019153D01*
Y0019209D02*
X0036778D01*
Y0019264D02*
Y0019153D01*
X0036944Y0018688D02*
Y0018854D01*
X0036889Y0018910D01*
X0036833D01*
X0036778Y0018854D01*
Y0018688D01*
X0037111D01*
X0036833Y0018500D02*
X0036778Y0018472D01*
Y0018305D01*
X0036833Y0018278D01*
X0036889D01*
X0036944Y0018305D01*
Y0018472D01*
X0037000Y0018500D01*
X0037056D01*
X0037111Y0018472D01*
Y0018305D01*
X0037056Y0018278D01*
X0010680Y0019145D02*
X0010602Y0019067D01*
X0010641Y0019106D02*
X0010405Y0019342D01*
Y0019263D01*
X0010390Y0018934D02*
X0010410Y0018875D01*
X0010292Y0018757D01*
X0010233Y0018777D01*
X0010076Y0018934D01*
X0010057Y0018993D01*
X0010174Y0019111D01*
X0010233Y0019091D01*
X0003382Y0024889D02*
X0003160D01*
X0003382Y0025111D01*
Y0025167D01*
X0003354Y0025222D01*
X0003188D01*
X0003160Y0025167D01*
X0002778Y0025000D02*
Y0024944D01*
X0002805Y0024889D01*
X0002917D01*
X0002944Y0024944D01*
Y0025222D01*
X0002972D02*
X0002861D01*
X0014934Y0018632D02*
X0014768D01*
X0014795Y0018687D01*
X0014907Y0018799D01*
X0014934Y0018854D01*
X0014768D01*
X0014580Y0018799D02*
X0014358D01*
X0014580Y0018632D02*
Y0018965D01*
X0014358Y0018632D02*
Y0018965D01*
X0014170Y0018632D02*
Y0018965D01*
X0014114Y0018910D01*
X0014059Y0018799D01*
X0014003Y0018910D01*
X0013948Y0018965D01*
Y0018632D01*
X0013565Y0018799D02*
X0013732D01*
X0013760Y0018743D01*
Y0018687D01*
X0013732Y0018632D01*
X0013565D01*
X0013538Y0018687D01*
Y0018743D01*
X0013649Y0018965D01*
X0013350Y0018632D02*
X0013239D01*
X0013294D02*
Y0018965D01*
X0013239Y0018910D01*
X0013877Y0021201D02*
X0013766D01*
X0013821D02*
Y0021535D01*
X0013766Y0021479D01*
X0013411Y0021201D02*
Y0021368D01*
X0013523Y0021535D02*
X0013439Y0021368D01*
X0013384D01*
X0013300Y0021535D01*
X0025242Y0001403D02*
X0025270Y0001348D01*
X0025437D01*
X0025465Y0001403D01*
Y0001515D01*
X0025409Y0001570D01*
X0025242D01*
Y0001681D01*
X0025465D01*
X0025055Y0001403D02*
X0025027Y0001348D01*
X0024860D01*
X0024832Y0001403D01*
Y0001626D01*
X0024860Y0001681D01*
X0025027D01*
X0025055Y0001626D01*
X0030375Y0006584D02*
Y0006917D01*
X0030347Y0006584D02*
X0030514D01*
X0030570Y0006695D01*
Y0006806D01*
X0030514Y0006917D01*
X0030347D01*
X0030104Y0006751D02*
X0029937D01*
X0030160Y0006584D02*
X0029937D01*
Y0006917D01*
X0030160D01*
X0029750Y0006584D02*
X0029555D01*
Y0006917D01*
X0027347Y0006734D02*
X0027124D01*
X0027347Y0006956D01*
Y0007012D01*
X0027319Y0007067D01*
X0027152D01*
X0027124Y0007012D01*
X0026742Y0006734D02*
Y0007067D01*
X0026714Y0006734D02*
X0026881D01*
X0026937Y0006845D01*
Y0006956D01*
X0026881Y0007067D01*
X0026714D01*
X0038236Y0015250D02*
X0038014D01*
X0038125Y0015472D01*
X0038181D01*
Y0015139D01*
X0037826D02*
X0037715D01*
X0037771D02*
Y0015472D01*
X0037715Y0015417D01*
X0037278Y0015250D02*
Y0015194D01*
X0037305Y0015139D01*
X0037417D01*
X0037444Y0015194D01*
Y0015472D01*
X0037472D02*
X0037361D01*
X0036819Y0016730D02*
Y0016896D01*
X0036764Y0016952D01*
X0036708D01*
X0036653Y0016896D01*
Y0016730D01*
X0036986D01*
Y0016542D02*
X0036653D01*
X0036708Y0016486D01*
X0036819Y0016431D01*
X0036708Y0016375D01*
X0036653Y0016320D01*
X0036986D01*
X0036653Y0016132D02*
X0036931D01*
X0036986Y0016104D01*
Y0015938D01*
X0036931Y0015910D01*
X0036653D01*
X0036875Y0015528D02*
X0036931D01*
X0036986Y0015555D01*
Y0015667D01*
X0036931Y0015694D01*
X0036653D01*
Y0015722D02*
Y0015611D01*
X0003787Y0018253D02*
Y0018476D01*
X0004009Y0018365D01*
Y0018309D01*
X0003675D01*
X0003731Y0018663D02*
X0003675Y0018691D01*
Y0018858D01*
X0003731Y0018886D01*
X0003953D01*
X0004009Y0018858D01*
Y0018691D01*
X0003953Y0018663D01*
X0002162Y0017899D02*
Y0018121D01*
X0002384Y0018010D01*
Y0017955D01*
X0002051D01*
Y0018448D02*
X0002106Y0018504D01*
X0002162Y0018531D01*
X0002273D01*
X0002328Y0018504D01*
X0002384Y0018448D01*
Y0018392D01*
X0002328Y0018337D01*
X0002273Y0018309D01*
X0002162D01*
X0002106Y0018337D01*
X0002051Y0018392D01*
Y0018448D01*
Y0018719D02*
Y0018830D01*
Y0018775D02*
X0002384D01*
X0002328Y0018830D01*
X0012040Y0018365D02*
X0011883Y0018208D01*
X0011805Y0018444D01*
X0011844Y0018483D01*
X0012080Y0018247D01*
X0011731Y0017898D02*
X0011652D01*
X0011593Y0017918D01*
X0011515Y0017996D01*
X0011495Y0018055D01*
Y0018134D01*
X0011534Y0018173D01*
X0011613D01*
X0011672Y0018154D01*
X0011750Y0018075D01*
X0011770Y0018016D01*
Y0017938D01*
X0011731Y0017898D01*
X0011539Y0017707D02*
X0011461Y0017628D01*
X0011500Y0017667D02*
X0011264Y0017903D01*
Y0017825D01*
X0028102Y0024968D02*
X0028338Y0024732D01*
Y0024968D02*
X0028102Y0024732D01*
X0025830Y0006291D02*
X0025664D01*
Y0006124D02*
Y0006458D01*
X0025886D01*
X0025448Y0006346D02*
Y0006124D01*
X0025476D02*
X0025281D01*
X0025254Y0006180D01*
Y0006346D01*
X0024927Y0006124D02*
X0024871Y0006180D01*
X0024844Y0006235D01*
Y0006346D01*
X0024871Y0006402D01*
X0024927Y0006458D01*
X0024983D01*
X0025038Y0006402D01*
X0025066Y0006346D01*
Y0006235D01*
X0025038Y0006180D01*
X0024983Y0006124D01*
X0024927D01*
X0024517D02*
X0024461Y0006180D01*
X0024434Y0006235D01*
Y0006346D01*
X0024461Y0006402D01*
X0024517Y0006458D01*
X0024573D01*
X0024628Y0006402D01*
X0024656Y0006346D01*
Y0006235D01*
X0024628Y0006180D01*
X0024573Y0006124D01*
X0024517D01*
X0024107D02*
X0024051Y0006180D01*
X0024024Y0006235D01*
Y0006346D01*
X0024051Y0006402D01*
X0024107Y0006458D01*
X0024163D01*
X0024218Y0006402D01*
X0024246Y0006346D01*
Y0006235D01*
X0024218Y0006180D01*
X0024163Y0006124D01*
X0024107D01*
X0023836D02*
X0023725D01*
X0023780D02*
Y0006458D01*
X0023725Y0006402D01*
X0016567Y0019639D02*
Y0019417D01*
X0016345Y0019639D01*
X0016290D01*
X0016234Y0019612D01*
Y0019445D01*
X0016290Y0019417D01*
X0016512Y0019229D02*
X0016567Y0019202D01*
Y0019035D01*
X0016512Y0019007D01*
X0016290D01*
X0016234Y0019035D01*
Y0019202D01*
X0016290Y0019229D01*
X0026000Y0023889D02*
X0025945Y0023944D01*
X0025917Y0024000D01*
Y0024111D01*
X0025945Y0024167D01*
X0026000Y0024222D01*
X0026056D01*
X0026111Y0024167D01*
X0026139Y0024111D01*
Y0024000D01*
X0026111Y0023944D01*
X0026056Y0023889D01*
X0026000D01*
X0025590D02*
X0025535Y0023944D01*
X0025507Y0024000D01*
Y0024111D01*
X0025535Y0024167D01*
X0025590Y0024222D01*
X0025646D01*
X0025701Y0024167D01*
X0025729Y0024111D01*
Y0024000D01*
X0025701Y0023944D01*
X0025646Y0023889D01*
X0025590D01*
X0025319D02*
X0025208D01*
X0025264D02*
Y0024222D01*
X0025208Y0024167D01*
X0024889Y0024000D02*
X0024667D01*
X0024778Y0024222D01*
X0024834D01*
Y0023889D01*
X0024479D02*
X0024368D01*
X0024424D02*
Y0024222D01*
X0024368Y0024167D01*
X0024042Y0024055D02*
X0024125Y0023889D01*
X0023903Y0024055D02*
X0024069D01*
X0024125Y0024111D01*
Y0024167D01*
X0024069Y0024222D01*
X0023903D01*
Y0023889D01*
X0020445Y0028555D02*
X0020611D01*
X0020639Y0028500D01*
Y0028444D01*
X0020611Y0028389D01*
X0020445D01*
X0020417Y0028444D01*
Y0028500D01*
X0020528Y0028722D01*
X0020229Y0028389D02*
X0020118D01*
X0020174D02*
Y0028722D01*
X0020118Y0028667D01*
X0019792Y0028555D02*
X0019875Y0028389D01*
X0019653Y0028555D02*
X0019819D01*
X0019875Y0028611D01*
Y0028667D01*
X0019819Y0028722D01*
X0019653D01*
Y0028389D01*
X0021750D02*
X0021695Y0028444D01*
X0021667Y0028500D01*
Y0028611D01*
X0021695Y0028667D01*
X0021750Y0028722D01*
X0021806D01*
X0021861Y0028667D01*
X0021889Y0028611D01*
Y0028500D01*
X0021861Y0028444D01*
X0021806Y0028389D01*
X0021750D01*
X0021340D02*
X0021285Y0028444D01*
X0021257Y0028500D01*
Y0028611D01*
X0021285Y0028667D01*
X0021340Y0028722D01*
X0021396D01*
X0021451Y0028667D01*
X0021479Y0028611D01*
Y0028500D01*
X0021451Y0028444D01*
X0021396Y0028389D01*
X0021340D01*
X0021069D02*
X0020958D01*
X0021014D02*
Y0028722D01*
X0020958Y0028667D01*
X0037056Y0021264D02*
X0037111Y0021292D01*
Y0021459D01*
X0037056Y0021486D01*
X0036944D01*
X0036889Y0021431D01*
Y0021264D01*
X0036778D01*
Y0021486D01*
X0037111Y0021076D02*
Y0020965D01*
Y0021021D02*
X0036778D01*
X0036833Y0020965D01*
X0037000Y0020528D02*
X0037056D01*
X0037111Y0020555D01*
Y0020667D01*
X0037056Y0020694D01*
X0036778D01*
Y0020722D02*
Y0020611D01*
X0004389Y0010861D02*
X0004555Y0011027D01*
X0004722Y0010861D01*
Y0011083D02*
X0004389D01*
Y0011410D02*
X0004444Y0011465D01*
X0004500Y0011493D01*
X0004611D01*
X0004667Y0011465D01*
X0004722Y0011410D01*
Y0011354D01*
X0004667Y0011298D01*
X0004611Y0011271D01*
X0004500D01*
X0004444Y0011298D01*
X0004389Y0011354D01*
Y0011410D01*
Y0011681D02*
Y0011792D01*
Y0011736D02*
X0004722D01*
X0004667Y0011792D01*
X0004389Y0012166D02*
Y0012277D01*
Y0012222D02*
X0004722D01*
X0004667Y0012277D01*
X0004389Y0012521D02*
Y0012632D01*
Y0012576D02*
X0004722D01*
X0004667Y0012632D01*
X0004555Y0012958D02*
X0004389Y0012875D01*
X0004555Y0013097D02*
Y0012931D01*
X0004611Y0012875D01*
X0004667D01*
X0004722Y0012931D01*
Y0013097D01*
X0004389D01*
X0018081Y0019994D02*
Y0019771D01*
X0017859Y0019883D01*
Y0019938D01*
X0018192D01*
Y0019445D02*
X0018137Y0019389D01*
X0018081Y0019361D01*
X0017970D01*
X0017914Y0019389D01*
X0017859Y0019445D01*
Y0019500D01*
X0017914Y0019556D01*
X0017970Y0019584D01*
X0018081D01*
X0018137Y0019556D01*
X0018192Y0019500D01*
Y0019445D01*
Y0019174D02*
Y0019063D01*
Y0019118D02*
X0017859D01*
X0017914Y0019063D01*
X0019861Y0014479D02*
X0019694Y0014313D01*
X0019528Y0014479D01*
Y0014257D02*
X0019861D01*
Y0014069D02*
Y0013958D01*
Y0014014D02*
X0019528D01*
X0019583Y0013958D01*
X0019861Y0013229D02*
Y0013118D01*
Y0013174D02*
X0019528D01*
X0019583Y0013118D01*
X0019694Y0012792D02*
X0019861Y0012875D01*
X0019694Y0012653D02*
Y0012819D01*
X0019639Y0012875D01*
X0019583D01*
X0019528Y0012819D01*
Y0012653D01*
X0019861D01*
X0020861Y0014479D02*
X0020694Y0014313D01*
X0020528Y0014479D01*
Y0014257D02*
X0020861D01*
Y0014069D02*
Y0013958D01*
Y0014014D02*
X0020528D01*
X0020583Y0013958D01*
X0020861Y0013285D02*
Y0013063D01*
X0020639Y0013285D01*
X0020583D01*
X0020528Y0013257D01*
Y0013090D01*
X0020583Y0013063D01*
X0020694Y0012792D02*
X0020861Y0012875D01*
X0020694Y0012653D02*
Y0012819D01*
X0020639Y0012875D01*
X0020583D01*
X0020528Y0012819D01*
Y0012653D01*
X0020861D01*
X0003639Y0015034D02*
X0003972Y0014868D01*
Y0015090D01*
X0003750Y0015472D02*
X0003694D01*
X0003639Y0015444D01*
Y0015333D01*
X0003694Y0015306D01*
X0003972D01*
Y0015278D02*
Y0015389D01*
X0022750Y0013285D02*
Y0013063D01*
X0022528Y0013174D01*
Y0013229D01*
X0022861D01*
X0022694Y0012792D02*
X0022861Y0012875D01*
X0022694Y0012653D02*
Y0012819D01*
X0022639Y0012875D01*
X0022583D01*
X0022528Y0012819D01*
Y0012653D01*
X0022861D01*
X0023861Y0014479D02*
X0023694Y0014313D01*
X0023528Y0014479D01*
Y0014257D02*
X0023861D01*
Y0014069D02*
Y0013958D01*
Y0014014D02*
X0023528D01*
X0023583Y0013958D01*
X0021861Y0014479D02*
X0021694Y0014313D01*
X0021528Y0014479D01*
Y0014257D02*
X0021861D01*
Y0014069D02*
Y0013958D01*
Y0014014D02*
X0021528D01*
X0021583Y0013958D01*
X0021806Y0013063D02*
X0021861Y0013118D01*
Y0013229D01*
X0021806Y0013285D01*
X0021750D01*
X0021639Y0013174D01*
X0021528Y0013285D01*
Y0013063D01*
X0021694Y0012792D02*
X0021861Y0012875D01*
X0021694Y0012653D02*
Y0012819D01*
X0021639Y0012875D01*
X0021583D01*
X0021528Y0012819D01*
Y0012653D01*
X0021861D01*
X0036639Y0012410D02*
X0036861Y0012299D01*
X0036639Y0012188D01*
X0036806Y0011778D02*
X0036861Y0011805D01*
Y0011972D01*
X0036806Y0012000D01*
X0036694D01*
X0036639Y0011944D01*
Y0011778D01*
X0036528D01*
Y0012000D01*
X0023806Y0013063D02*
X0023861Y0013090D01*
Y0013257D01*
X0023806Y0013285D01*
X0023694D01*
X0023639Y0013229D01*
Y0013063D01*
X0023528D01*
Y0013285D01*
X0023694Y0012792D02*
X0023861Y0012875D01*
X0023694Y0012653D02*
Y0012819D01*
X0023639Y0012875D01*
X0023583D01*
X0023528Y0012819D01*
Y0012653D01*
X0023861D01*
X0024861Y0014479D02*
X0024694Y0014313D01*
X0024528Y0014479D01*
Y0014257D02*
X0024861D01*
Y0014069D02*
Y0013958D01*
Y0014014D02*
X0024528D01*
X0024583Y0013958D01*
X0036694Y0013604D02*
Y0013438D01*
X0036639Y0013410D01*
X0036583D01*
X0036528Y0013438D01*
Y0013604D01*
X0036583Y0013632D01*
X0036639D01*
X0036861Y0013521D01*
X0036750Y0013028D02*
X0036806D01*
X0036861Y0013055D01*
Y0013167D01*
X0036806Y0013194D01*
X0036528D01*
Y0013222D02*
Y0013111D01*
X0024694Y0013090D02*
Y0013257D01*
X0024750Y0013285D01*
X0024806D01*
X0024861Y0013257D01*
Y0013090D01*
X0024806Y0013063D01*
X0024750D01*
X0024528Y0013174D01*
X0024694Y0012792D02*
X0024861Y0012875D01*
X0024694Y0012653D02*
Y0012819D01*
X0024639Y0012875D01*
X0024583D01*
X0024528Y0012819D01*
Y0012653D01*
X0024861D01*
X0018861Y0020889D02*
X0018694Y0020723D01*
X0018528Y0020889D01*
Y0020667D02*
X0018861D01*
Y0020340D02*
X0018806Y0020285D01*
X0018750Y0020257D01*
X0018639D01*
X0018583Y0020285D01*
X0018528Y0020340D01*
Y0020396D01*
X0018583Y0020451D01*
X0018639Y0020479D01*
X0018750D01*
X0018806Y0020451D01*
X0018861Y0020396D01*
Y0020340D01*
Y0020069D02*
Y0019958D01*
Y0020014D02*
X0018528D01*
X0018583Y0019958D01*
X0018861Y0019118D02*
X0018528Y0019285D01*
Y0019063D01*
X0018694Y0018792D02*
X0018861Y0018875D01*
X0018694Y0018653D02*
Y0018819D01*
X0018639Y0018875D01*
X0018583D01*
X0018528Y0018819D01*
Y0018653D01*
X0018861D01*
X0029182Y0004527D02*
X0029516Y0004360D01*
Y0004583D01*
X0029238Y0004770D02*
X0029182Y0004798D01*
Y0004965D01*
X0029238Y0004993D01*
X0029460D01*
X0029516Y0004965D01*
Y0004798D01*
X0029460Y0004770D01*
X0029419Y0003006D02*
Y0003228D01*
X0029641Y0003117D01*
Y0003062D01*
X0029308D01*
Y0003555D02*
X0029363Y0003611D01*
X0029419Y0003638D01*
X0029530D01*
X0029585Y0003611D01*
X0029641Y0003555D01*
Y0003499D01*
X0029585Y0003444D01*
X0029530Y0003416D01*
X0029419D01*
X0029363Y0003444D01*
X0029308Y0003499D01*
Y0003555D01*
Y0003826D02*
Y0003937D01*
Y0003882D02*
X0029641D01*
X0029585Y0003937D01*
X0027144Y0021981D02*
X0026921D01*
X0027144Y0021870D02*
Y0022037D01*
X0027060Y0022203D01*
X0027005D01*
X0026921Y0022037D01*
Y0021870D01*
X0026734D02*
X0026511D01*
X0026734Y0022092D01*
Y0022148D01*
X0026706Y0022203D01*
X0026539D01*
X0026511Y0022148D01*
X0026101Y0021925D02*
X0026157Y0021870D01*
X0026268D01*
X0026324Y0021925D01*
Y0021981D01*
X0026213Y0022092D01*
X0026324Y0022203D01*
X0026101D01*
X0025747Y0022092D02*
X0025858D01*
X0025886Y0022037D01*
Y0021925D01*
X0025914Y0021870D01*
X0025719D01*
X0025691Y0021925D01*
X0025719Y0021981D01*
X0025886D01*
X0025365Y0021759D02*
X0025476D01*
X0025504Y0021814D01*
Y0022092D01*
X0025337D01*
X0025309Y0022037D01*
Y0021925D01*
X0025337Y0021870D01*
X0025504D01*
X0025094D02*
X0024927D01*
X0024899Y0021925D01*
Y0022037D01*
X0024927Y0022092D01*
X0025094D01*
X0025122Y0022037D01*
Y0021981D01*
X0024899D01*
X0024600Y0021870D02*
Y0022037D01*
X0024712Y0021870D02*
Y0022037D01*
X0024684Y0022092D01*
X0024628D01*
X0024600Y0022037D01*
X0024573Y0022092D01*
X0024517D01*
X0024489Y0022037D01*
Y0021870D01*
X0024274Y0022092D02*
X0024107D01*
X0024302Y0021870D02*
X0024190D01*
X0024163Y0021925D01*
Y0022203D01*
X0023919Y0021981D02*
X0023697D01*
X0023919Y0021870D02*
Y0022037D01*
X0023836Y0022203D01*
X0023780D01*
X0023697Y0022037D01*
Y0021870D01*
X0035261Y0006473D02*
X0035094D01*
Y0006306D02*
Y0006639D01*
X0035316D01*
X0034879Y0006528D02*
Y0006306D01*
X0034906D02*
X0034712D01*
X0034684Y0006361D01*
Y0006528D01*
X0034357Y0006306D02*
X0034302Y0006361D01*
X0034274Y0006417D01*
Y0006528D01*
X0034302Y0006584D01*
X0034357Y0006639D01*
X0034413D01*
X0034469Y0006584D01*
X0034496Y0006528D01*
Y0006417D01*
X0034469Y0006361D01*
X0034413Y0006306D01*
X0034357D01*
X0033947D02*
X0033892Y0006361D01*
X0033864Y0006417D01*
Y0006528D01*
X0033892Y0006584D01*
X0033947Y0006639D01*
X0034003D01*
X0034059Y0006584D01*
X0034086Y0006528D01*
Y0006417D01*
X0034059Y0006361D01*
X0034003Y0006306D01*
X0033947D01*
X0033537D02*
X0033482Y0006361D01*
X0033454Y0006417D01*
Y0006528D01*
X0033482Y0006584D01*
X0033537Y0006639D01*
X0033593D01*
X0033649Y0006584D01*
X0033676Y0006528D01*
Y0006417D01*
X0033649Y0006361D01*
X0033593Y0006306D01*
X0033537D01*
X0033266D02*
X0033155D01*
X0033211D02*
Y0006639D01*
X0033155Y0006584D01*
X0033472Y0009508D02*
X0033639D01*
X0033667Y0009453D01*
Y0009397D01*
X0033639Y0009342D01*
X0033472D01*
X0033444Y0009397D01*
Y0009453D01*
X0033556Y0009675D01*
X0033257Y0009397D02*
X0033229Y0009342D01*
X0033062D01*
X0033034Y0009397D01*
Y0009620D01*
X0033062Y0009675D01*
X0033229D01*
X0033257Y0009620D01*
X0022861Y0014479D02*
X0022694Y0014313D01*
X0022528Y0014479D01*
Y0014257D02*
X0022861D01*
Y0014069D02*
Y0013958D01*
Y0014014D02*
X0022528D01*
X0022583Y0013958D01*
X0029539Y0001154D02*
X0029595Y0001182D01*
Y0001349D01*
X0029539Y0001377D01*
X0029428D01*
X0029373Y0001321D01*
Y0001154D01*
X0029262D01*
Y0001377D01*
Y0000967D02*
X0029539D01*
X0029595Y0000939D01*
Y0000772D01*
X0029539Y0000744D01*
X0029262D01*
X0032195Y0003426D02*
X0032139Y0003371D01*
X0032084Y0003343D01*
X0031973D01*
X0031917Y0003371D01*
X0031862Y0003426D01*
Y0003482D01*
X0031917Y0003537D01*
X0031973Y0003565D01*
X0032084D01*
X0032139Y0003537D01*
X0032195Y0003482D01*
Y0003426D01*
X0032139Y0002933D02*
X0032195Y0002961D01*
Y0003127D01*
X0032139Y0003155D01*
X0032028D01*
X0031973Y0003100D01*
Y0002933D01*
X0031862D01*
Y0003155D01*
X0032195Y0002745D02*
Y0002634D01*
Y0002690D02*
X0031862D01*
X0031917Y0002634D01*
X0032028Y0002363D02*
Y0002196D01*
X0031973Y0002169D01*
X0031917D01*
X0031862Y0002196D01*
Y0002363D01*
X0031917Y0002391D01*
X0031973D01*
X0032195Y0002280D01*
Y0001981D02*
Y0001759D01*
X0031973Y0001981D01*
X0031917D01*
X0031862Y0001953D01*
Y0001786D01*
X0031917Y0001759D01*
X0032139Y0001571D02*
X0032195Y0001543D01*
Y0001376D01*
X0032139Y0001349D01*
X0031917D01*
X0031862Y0001376D01*
Y0001543D01*
X0031917Y0001571D01*
X0032195Y0001161D02*
Y0001050D01*
Y0001105D02*
X0031862D01*
Y0001161D02*
Y0001050D01*
X0032195Y0000807D02*
X0031862D01*
X0031917Y0000751D01*
X0032028Y0000695D01*
X0031917Y0000640D01*
X0031862Y0000584D01*
X0032195D01*
X0031855Y0008750D02*
X0031799D01*
X0031966Y0008639D02*
X0031855Y0008750D01*
X0031966Y0008861D01*
X0031799Y0008639D02*
Y0008972D01*
X0031584Y0008639D02*
X0031361D01*
X0031584Y0008861D01*
Y0008917D01*
X0031556Y0008972D01*
X0031389D01*
X0031361Y0008917D01*
X0031118Y0008639D02*
X0031174D01*
Y0008694D01*
X0031118D01*
Y0008639D01*
X0030875D02*
X0030653D01*
X0030875Y0008861D01*
Y0008917D01*
X0030847Y0008972D01*
X0030680D01*
X0030653Y0008917D01*
X0029917Y0008694D02*
X0029945Y0008639D01*
X0030111D01*
X0030139Y0008694D01*
Y0008805D01*
X0030084Y0008861D01*
X0029917D01*
Y0008972D01*
X0030139D01*
X0029729Y0008639D02*
X0029618D01*
X0029674D02*
Y0008972D01*
X0029618Y0008917D01*
X0029292Y0008805D02*
X0029375Y0008639D01*
X0029153Y0008805D02*
X0029319D01*
X0029375Y0008861D01*
Y0008917D01*
X0029319Y0008972D01*
X0029153D01*
Y0008639D01*
X0020796Y0023888D02*
X0020630D01*
Y0023722D02*
Y0024055D01*
X0020852D01*
X0020414Y0023944D02*
Y0023722D01*
X0020442D02*
X0020248D01*
X0020220Y0023777D01*
Y0023944D01*
X0019893Y0023722D02*
X0019838Y0023777D01*
X0019810Y0023833D01*
Y0023944D01*
X0019838Y0023999D01*
X0019893Y0024055D01*
X0019949D01*
X0020004Y0023999D01*
X0020032Y0023944D01*
Y0023833D01*
X0020004Y0023777D01*
X0019949Y0023722D01*
X0019893D01*
X0019622D02*
X0019511D01*
X0019567D02*
Y0024055D01*
X0019511Y0023999D01*
X0005681Y0005014D02*
X0005570D01*
X0005625D02*
Y0005347D01*
X0005570Y0005292D01*
X0005326Y0005014D02*
X0005215D01*
X0005271D02*
Y0005347D01*
X0005215Y0005292D01*
X0004778Y0005125D02*
Y0005069D01*
X0004805Y0005014D01*
X0004917D01*
X0004944Y0005069D01*
Y0005347D01*
X0004972D02*
X0004861D01*
X0030503Y0027133D02*
X0030267Y0026898D01*
X0018625Y0025352D02*
X0018653Y0025408D01*
Y0025464D01*
X0018625Y0025519D01*
X0018459D01*
X0018431Y0025464D01*
Y0025408D01*
X0018459Y0025352D01*
X0018625D01*
X0018653Y0025297D01*
Y0025241D01*
X0018625Y0025186D01*
X0018459D01*
X0018431Y0025241D01*
Y0025297D01*
X0018459Y0025352D01*
X0018243Y0025241D02*
X0018215Y0025186D01*
X0018049D01*
X0018021Y0025241D01*
Y0025464D01*
X0018049Y0025519D01*
X0018215D01*
X0018243Y0025464D01*
X0012750Y0004625D02*
X0004750D01*
Y0003625D01*
X0012750D01*
Y0004625D01*
X0027500Y0019000D02*
X0026750D01*
Y0021000D01*
X0027500D01*
Y0022500D01*
X0007000D01*
Y0017500D01*
X0027500D01*
Y0021000D01*
X0037250Y0013750D02*
Y0011750D01*
X0038250D01*
Y0013750D01*
X0037250D01*
X0024350Y0012250D02*
Y0015250D01*
X0025150D01*
Y0012250D01*
X0024350D01*
X0011103Y0017896D02*
X0012518Y0019310D01*
X0011810Y0020018D02*
X0010396Y0018603D01*
X0011103Y0017896D01*
X0012518Y0019310D01*
X0011810Y0020018D01*
X0018750Y0021375D02*
Y0021250D01*
Y0018125D02*
Y0018250D01*
X0018350D02*
Y0021250D01*
X0019150D01*
Y0018250D01*
X0018350D01*
X0023750Y0015375D02*
Y0015250D01*
Y0012125D02*
Y0012250D01*
X0023350D02*
Y0015250D01*
X0024150D01*
Y0012250D01*
X0023350D01*
X0002500Y0024750D02*
Y0020750D01*
X0003500D01*
Y0024750D01*
X0002500D01*
X0014076Y0020350D02*
Y0019650D01*
X0014300Y0020302D02*
X0014000D01*
X0014300Y0020230D02*
X0014000D01*
X0014300Y0020158D02*
X0014000D01*
X0014300Y0020086D02*
X0014000D01*
X0014300Y0020014D02*
X0014000D01*
X0014300Y0019942D02*
X0014000D01*
X0014300Y0019870D02*
X0014000D01*
X0014300Y0019798D02*
X0014000D01*
X0014300Y0019726D02*
X0014000D01*
X0014300Y0020350D02*
X0014000D01*
Y0019650D01*
X0014300D02*
X0014000D01*
X0014300Y0020350D02*
Y0019650D01*
X0014292Y0020350D02*
Y0019650D01*
X0014220Y0020350D02*
Y0019650D01*
X0014148Y0020350D02*
Y0019650D01*
X0014450Y0020500D02*
Y0019500D01*
X0015900Y0019125D02*
X0012400D01*
Y0020875D02*
X0015900D01*
X0013850Y0020500D02*
Y0019500D01*
X0014550Y0020000D02*
X0014450D01*
X0014600D02*
X0014500D01*
X0014700D02*
X0014610D01*
X0013850D02*
X0013600D01*
X0014450D02*
X0014580D01*
X0017750Y0019000D02*
Y0021000D01*
X0022750Y0015375D02*
Y0015250D01*
Y0012125D02*
Y0012250D01*
X0002493Y0018893D02*
Y0016893D01*
X0003493D02*
Y0018893D01*
X0002493D01*
Y0016893D01*
X0003493D01*
X0016750Y0021000D02*
Y0019000D01*
X0017750D01*
Y0021000D01*
X0016750D01*
X0022350Y0012250D02*
Y0015250D01*
X0023150D01*
Y0012250D01*
X0022350D01*
X0020350D02*
Y0015250D01*
X0021150D01*
Y0012250D01*
X0020350D01*
X0023500Y0024400D02*
X0026500D01*
Y0023600D01*
X0023500D01*
Y0024400D01*
X0004900Y0013500D02*
Y0010500D01*
X0004100D01*
Y0013500D01*
X0004900D01*
X0002500Y0015500D02*
Y0011500D01*
X0003500D01*
Y0015500D01*
X0002500D01*
X0021750Y0015375D02*
Y0015250D01*
Y0012125D02*
Y0012250D01*
X0021350D02*
Y0015250D01*
X0022150D01*
Y0012250D01*
X0021350D01*
X0019125Y0028500D02*
X0019250D01*
Y0028900D02*
X0022250D01*
Y0028100D01*
X0019250D01*
Y0028900D01*
X0028875Y0008000D02*
X0029000D01*
X0032125D02*
X0032000D01*
X0019750Y0015375D02*
Y0015250D01*
Y0012125D02*
Y0012250D01*
X0019350D02*
Y0015250D01*
X0020150D01*
Y0012250D01*
X0019350D01*
X0028000Y0005000D02*
Y0003000D01*
X0029000D02*
Y0005000D01*
X0028000D01*
Y0003000D01*
X0029000D01*
X0026625Y0024000D02*
X0026500D01*
X0024750Y0012125D02*
Y0012250D01*
X0020750Y0015375D02*
Y0015250D01*
Y0012125D02*
Y0012250D01*
X0032000Y0007600D02*
X0029000D01*
Y0008400D01*
X0032000D01*
Y0007600D01*
X0023375Y0024000D02*
X0023500D01*
X0024750Y0015375D02*
Y0015250D01*
X0004500Y0010375D02*
Y0010500D01*
Y0013625D02*
Y0013500D01*
X0022375Y0028500D02*
X0022250D01*
G01X0027000Y0003250D02*
G03X0024500Y0005750I0002500J0000000D01*
G03X0022000Y0003250I0000000J0002500D01*
G03X0024500Y0000750I0002500J0000000D01*
G03X0027000Y0003250I0000000J0002500D01*
G01X0012025Y0020000D02*
G03X0012400Y0019125I0001208J0000000D01*
Y0020875D02*
G03X0012025Y0020000I0000833J0000875D01*
G01X0016275D02*
G03X0015900Y0020875I0001208J0000000D01*
Y0019125D02*
G03X0016275Y0020000I0000833J0000875D01*
G01X0027000Y0003250D02*
G03X0024500Y0005750I0002500J0000000D01*
G03X0022000Y0003250I0000000J0002500D01*
G03X0024500Y0000750I0002500J0000000D01*
G03X0027000Y0003250I0000000J0002500D01*
G54D63*
G01X0038250Y0018250D02*
X0037250D01*
Y0024250D01*
X0038250D01*
Y0018250D01*
X0025125Y0012437D02*
X0024375D01*
Y0012562D02*
X0025125D01*
X0019825Y0001531D02*
X0016675D01*
Y0005468D01*
X0019825D01*
Y0001531D01*
X0019125Y0018437D02*
X0018375D01*
Y0018562D02*
X0019125D01*
X0024125Y0012437D02*
X0023375D01*
Y0012562D02*
X0024125D01*
X0004125Y0013312D02*
X0004875D01*
X0037250Y0017500D02*
X0038250D01*
Y0015500D01*
X0037250D01*
Y0017500D01*
Y0016500D02*
X0038250D01*
X0022375Y0012562D02*
X0023125D01*
X0004875Y0013187D02*
X0004125D01*
X0028750Y0006125D02*
X0028250D01*
X0028750Y0006375D02*
X0028500Y0006125D01*
X0028250Y0006375D01*
X0028750D01*
X0031812Y0008375D02*
Y0007625D01*
X0022125Y0012437D02*
X0021375D01*
Y0012562D02*
X0022125D01*
X0019562Y0028875D02*
Y0028125D01*
X0023125Y0012437D02*
X0022375D01*
X0020125D02*
X0019375D01*
Y0012562D02*
X0020125D01*
X0023687Y0023625D02*
Y0024375D01*
X0021125Y0012437D02*
X0020375D01*
Y0012562D02*
X0021125D01*
X0031687Y0007625D02*
Y0008375D01*
X0023812Y0024375D02*
Y0023625D01*
X0019437Y0028125D02*
Y0028875D01*
G01X0001250Y0000709D02*
G03X0002041Y0001500I0000000J0000791D01*
G01X0000459D02*
G03X0001250Y0000709I0000791J0000000D01*
Y0002290D02*
G03X0000460Y0001500I0000000J0000790D01*
G01X0002040D02*
G03X0001250Y0002290I0000790J0000000D01*
G01X0038750Y0000709D02*
G03X0039541Y0001500I0000000J0000791D01*
G01X0037959D02*
G03X0038750Y0000709I0000791J0000000D01*
Y0002290D02*
G03X0037960Y0001500I0000000J0000790D01*
G01X0039540D02*
G03X0038750Y0002290I0000790J0000000D01*
G01X0029261Y0006250D02*
G03X0028875Y0006875I0000699J0000000D01*
Y0005625D02*
G03X0029261Y0006250I0000313J0000625D01*
G01X0027750D02*
G03X0028125Y0005625I0000708J0000000D01*
Y0006875D02*
G03X0027750Y0006250I0000333J0000625D01*
G54D64*
G01X0031470Y0000500D02*
X0027250D01*
Y0001200D01*
X0028850D01*
Y0001800D01*
X0027250D01*
Y0002400D01*
X0028850D01*
Y0003050D01*
X0027300D01*
Y0003750D01*
X0028850D01*
Y0004450D01*
X0027300D01*
Y0005150D01*
X0028850D01*
Y0005800D01*
X0027250D01*
Y0006450D01*
X0031500D01*
Y0005650D01*
X0029900D01*
Y0001350D01*
X0031500D01*
Y0000500D01*
X0031470D01*
G01X0018256Y0025065D02*
G03X0018223Y0025063I0000000J0001065D01*
G01X0019321Y0024000D02*
G03X0018256Y0025065I0001065J0000000D01*
Y0022935D02*
G03X0019321Y0024000I0000000J0001065D01*
G01X0018223Y0022936D02*
G03X0018256Y0022935I0000033J0001064D01*
G01X0017160Y0024000D02*
G03X0018223Y0022937I0001063J0000000D01*
Y0025063D02*
G03X0017160Y0024000I0000000J0001063D01*
G01X0034243Y0006936D02*
G03X0034277Y0006936I0000000J0001064D01*
G01X0033179Y0008000D02*
G03X0034243Y0006936I0001064J0000000D01*
Y0009064D02*
G03X0033179Y0008000I0000000J0001064D01*
G01X0034277Y0009063D02*
G03X0034243Y0009064I0000034J0001063D01*
G01X0035341Y0008000D02*
G03X0034277Y0009064I0001064J0000000D01*
Y0006936D02*
G03X0035341Y0008000I0000000J0001064D01*
G54D65*
G01X0029184Y0006103D02*
Y0006222D01*
Y0006103D02*
X0029066D01*
X0029184D02*
X0028948Y0006340D01*
X0029091Y0006010D02*
Y0006128D01*
Y0006010D02*
X0028973D01*
X0029091D02*
X0028854Y0006246D01*
X0027088Y0028162D02*
X0030412Y0024838D01*
G01X0028750Y0024147D02*
G03X0031103Y0026500I0000000J0002353D01*
G01X0026397D02*
G03X0028750Y0024147I0002353J0000000D01*
Y0028852D02*
G03X0026398Y0026500I0000000J0002352D01*
G01X0031102D02*
G03X0028750Y0028852I0002352J0000000D01*
G54D66*
G01X0030750Y0005550D02*
Y0005050D01*
Y0001450D02*
Y0001950D01*
X0031500Y0002187D02*
Y0005062D01*
X0031000Y0005562D01*
X0030000D01*
Y0001437D01*
X0031000D01*
X0031500Y0001937D01*
Y0002187D01*
G54D67*
G01X0028625Y0018000D02*
Y0016875D01*
X0038250Y0014750D02*
X0038875D01*
X0005500Y0016125D02*
X0004500D01*
G54D68*
G01X0030263Y0025171D02*
Y0025336D01*
X0030428D01*
X0030318Y0025446D02*
X0030153Y0025281D01*
X0030109Y0025434D02*
X0029999Y0025544D01*
X0030054Y0025379D02*
X0030137Y0025462D01*
X0030178Y0025585D01*
X0030150Y0025613D01*
X0030026Y0025572D01*
X0029944Y0025489D01*
X0029900Y0025698D02*
X0029818Y0025780D01*
X0029845Y0025588D02*
X0029735Y0025698D01*
X0029900Y0025863D01*
X0030010Y0025753D01*
X0029609Y0025989D02*
X0029692Y0025906D01*
X0029747D01*
X0029774Y0025934D01*
Y0025989D01*
X0029692Y0026071D01*
X0029527Y0025906D01*
X0029566Y0026142D02*
X0029579Y0026184D01*
X0029497Y0026266D01*
X0029456Y0026252D01*
X0029428Y0026225D01*
X0029414Y0026184D01*
X0029497Y0026101D01*
X0029483Y0026060D01*
X0029456Y0026032D01*
X0029414Y0026019D01*
X0029332Y0026101D01*
X0029346Y0026142D01*
X0027790Y0027756D02*
X0027680Y0027866D01*
X0027845Y0027921D01*
X0027873Y0027893D01*
X0027708Y0027728D01*
X0027692Y0028074D02*
X0027554Y0027937D01*
X0027513Y0027923D01*
X0027430Y0028006D01*
X0027444Y0028047D01*
X0027582Y0028184D01*
G54D61*
X0015150Y0020000D03*
X0013150D03*
M02*
