*
G04 Mass Parameters ***
*
G04 Image ***
*
%IND:\DO NHIET DO VA DO AM\SHT11 - MEGA32A\SCHEMATIC_LAYOUT_SHT11\PCB-SHT11-FULL-SEND\PCB-SHT11-MCU\PCB-SHT11-MCU-LAYOUT\PCB-SHT11-MCU.TOP*%
%ICAS*%
%MOIN*%
%IPPOS*%
%ASAXBY*%
G74*%FSLAN2X34Y34*%
*
G04 Aperture Definitions ***
*
%ADD10C,0.0500*%
%ADD11C,0.0020*%
%ADD12R,0.0500X0.0500*%
%ADD13C,0.0800*%
%ADD14R,0.0800X0.0800*%
%ADD15C,0.0600*%
%ADD16R,0.0600X0.0600*%
%ADD17O,0.0950X0.0650*%
%ADD18R,0.0950X0.0650*%
%ADD19C,0.1000*%
%ADD20R,0.1000X0.1000*%
%ADD21O,0.0650X0.0650*%
%ADD22R,0.0650X0.0650*%
%ADD23C,0.1260*%
%ADD24C,0.0650*%
%ADD25C,0.1575*%
%ADD26O,0.0750X0.0900*%
%ADD27R,0.0750X0.0900*%
%ADD28O,0.0949X0.0649*%
%ADD29C,0.0790*%
%ADD30O,0.0850X0.0700*%
%ADD31R,0.0850X0.0700*%
%ADD32C,0.0600*%
%ADD33C,0.0250*%
%ADD34C,0.0600*%
%ADD35C,0.0200*%
*
G04 Plot Data ***
*
G54D11*
G01X0027702Y0024907D02*
X0027676D01*
X0027145Y0025439D02*
X0027689Y0024895D01*
Y0025984D02*
X0027145Y0025439D01*
X0027689Y0025984D02*
X0028234Y0025439D01*
X0027689Y0024895D01*
X0028219Y0025454D02*
Y0025424D01*
X0028201Y0025472D02*
Y0025406D01*
X0028183Y0025490D02*
Y0025389D01*
X0028166Y0025507D02*
Y0025371D01*
X0028148Y0025525D02*
Y0025353D01*
X0028130Y0025543D02*
Y0025336D01*
X0028113Y0025560D02*
Y0025318D01*
X0028095Y0025578D02*
Y0025300D01*
X0028077Y0025596D02*
Y0025283D01*
X0028060Y0025614D02*
Y0025265D01*
X0028042Y0025631D02*
Y0025247D01*
X0028024Y0025649D02*
Y0025229D01*
X0028006Y0025667D02*
Y0025212D01*
X0027989Y0025684D02*
Y0025194D01*
X0027971Y0025702D02*
Y0025176D01*
X0027953Y0025720D02*
Y0025159D01*
X0027936Y0025737D02*
Y0025141D01*
X0027918Y0025755D02*
Y0025123D01*
X0027900Y0025773D02*
Y0025106D01*
X0027883Y0025790D02*
Y0025088D01*
X0027865Y0025808D02*
Y0025070D01*
X0027847Y0025826D02*
Y0025053D01*
X0027830Y0025843D02*
Y0025035D01*
X0027812Y0025861D02*
Y0025017D01*
X0027794Y0025879D02*
Y0025000D01*
X0027777Y0025897D02*
Y0024982D01*
X0027759Y0025914D02*
Y0024964D01*
X0027741Y0025932D02*
Y0024946D01*
X0027723Y0025950D02*
Y0024929D01*
X0027706Y0025967D02*
Y0024911D01*
X0027688Y0025983D02*
Y0024896D01*
X0027670Y0025965D02*
Y0024913D01*
X0027653Y0025947D02*
Y0024931D01*
X0027635Y0025930D02*
Y0024949D01*
X0027617Y0025912D02*
Y0024966D01*
X0027600Y0025894D02*
Y0024984D01*
X0027582Y0025877D02*
Y0025002D01*
X0027564Y0025859D02*
Y0025019D01*
X0027547Y0025841D02*
Y0025037D01*
X0027529Y0025824D02*
Y0025055D01*
X0027511Y0025806D02*
Y0025072D01*
X0027494Y0025788D02*
Y0025090D01*
X0027476Y0025770D02*
Y0025108D01*
X0027458Y0025753D02*
Y0025126D01*
X0027440Y0025735D02*
Y0025143D01*
X0027423Y0025717D02*
Y0025161D01*
X0027405Y0025700D02*
Y0025179D01*
X0027387Y0025682D02*
Y0025196D01*
X0027370Y0025664D02*
Y0025214D01*
X0027352Y0025647D02*
Y0025232D01*
X0027334Y0025629D02*
Y0025249D01*
X0027317Y0025611D02*
Y0025267D01*
X0027299Y0025594D02*
Y0025285D01*
X0027281Y0025576D02*
Y0025302D01*
X0027264Y0025558D02*
Y0025320D01*
X0027246Y0025541D02*
Y0025338D01*
X0027228Y0025523D02*
Y0025355D01*
X0027211Y0025505D02*
Y0025373D01*
X0027193Y0025487D02*
Y0025391D01*
X0027175Y0025470D02*
Y0025409D01*
X0027157Y0025452D02*
Y0025426D01*
X0027704Y0025969D02*
X0027674D01*
X0027722Y0025951D02*
X0027656D01*
X0027740Y0025933D02*
X0027639D01*
X0027757Y0025916D02*
X0027621D01*
X0027775Y0025898D02*
X0027603D01*
X0027793Y0025880D02*
X0027586D01*
X0027810Y0025863D02*
X0027568D01*
X0027828Y0025845D02*
X0027550D01*
X0027846Y0025827D02*
X0027533D01*
X0027864Y0025810D02*
X0027515D01*
X0027881Y0025792D02*
X0027497D01*
X0027899Y0025774D02*
X0027479D01*
X0027917Y0025756D02*
X0027462D01*
X0027934Y0025739D02*
X0027444D01*
X0027952Y0025721D02*
X0027426D01*
X0027970Y0025703D02*
X0027409D01*
X0027987Y0025686D02*
X0027391D01*
X0028005Y0025668D02*
X0027373D01*
X0028023Y0025650D02*
X0027356D01*
X0028040Y0025633D02*
X0027338D01*
X0028058Y0025615D02*
X0027320D01*
X0028076Y0025597D02*
X0027303D01*
X0028093Y0025580D02*
X0027285D01*
X0028111Y0025562D02*
X0027267D01*
X0028129Y0025544D02*
X0027250D01*
X0028147Y0025527D02*
X0027232D01*
X0028164Y0025509D02*
X0027214D01*
X0028182Y0025491D02*
X0027196D01*
X0028200Y0025473D02*
X0027179D01*
X0028217Y0025456D02*
X0027161D01*
X0028233Y0025438D02*
X0027146D01*
X0028215Y0025420D02*
X0027163D01*
X0028197Y0025403D02*
X0027181D01*
X0028180Y0025385D02*
X0027199D01*
X0028162Y0025367D02*
X0027216D01*
X0028144Y0025350D02*
X0027234D01*
X0028127Y0025332D02*
X0027252D01*
X0028109Y0025314D02*
X0027269D01*
X0028091Y0025297D02*
X0027287D01*
X0028074Y0025279D02*
X0027305D01*
X0028056Y0025261D02*
X0027322D01*
X0028038Y0025244D02*
X0027340D01*
X0028020Y0025226D02*
X0027358D01*
X0028003Y0025208D02*
X0027376D01*
X0027985Y0025190D02*
X0027393D01*
X0027967Y0025173D02*
X0027411D01*
X0027950Y0025155D02*
X0027429D01*
X0027932Y0025137D02*
X0027446D01*
X0027914Y0025120D02*
X0027464D01*
X0027897Y0025102D02*
X0027482D01*
X0027879Y0025084D02*
X0027499D01*
X0027861Y0025067D02*
X0027517D01*
X0027844Y0025049D02*
X0027535D01*
X0027826Y0025031D02*
X0027552D01*
X0027808Y0025014D02*
X0027570D01*
X0027791Y0024996D02*
X0027588D01*
X0027773Y0024978D02*
X0027605D01*
X0027755Y0024961D02*
X0027623D01*
X0027737Y0024943D02*
X0027641D01*
X0027720Y0024925D02*
X0027659D01*
X0011307Y0018739D02*
Y0018468D01*
X0011290Y0018756D02*
Y0018450D01*
X0011272Y0018774D02*
Y0018433D01*
X0011254Y0018792D02*
Y0018415D01*
X0011237Y0018809D02*
Y0018397D01*
X0011219Y0018827D02*
Y0018380D01*
X0011201Y0018845D02*
Y0018362D01*
X0011184Y0018862D02*
Y0018344D01*
X0011166Y0018880D02*
Y0018327D01*
X0011148Y0018898D02*
Y0018309D01*
X0011131Y0018915D02*
Y0018291D01*
X0011113Y0018933D02*
Y0018273D01*
X0011095Y0018935D02*
Y0018272D01*
X0011077Y0018917D02*
Y0018290D01*
X0011060Y0018899D02*
Y0018307D01*
X0011042Y0018882D02*
Y0018325D01*
X0011024Y0018864D02*
Y0018343D01*
X0011007Y0018846D02*
Y0018360D01*
X0010989Y0018829D02*
Y0018378D01*
X0010971Y0018811D02*
Y0018396D01*
X0010954Y0018793D02*
Y0018413D01*
X0010936Y0018775D02*
Y0018431D01*
X0010918Y0018758D02*
Y0018449D01*
X0010901Y0018740D02*
Y0018466D01*
X0010883Y0018722D02*
Y0018484D01*
X0010865Y0018705D02*
Y0018502D01*
X0010848Y0018687D02*
Y0018519D01*
X0010830Y0018669D02*
Y0018537D01*
X0010812Y0018652D02*
Y0018555D01*
X0010794Y0018634D02*
Y0018573D01*
X0010777Y0018616D02*
Y0018590D01*
X0011115Y0018931D02*
X0011092D01*
X0011132Y0018914D02*
X0011074D01*
X0011150Y0018896D02*
X0011056D01*
X0011168Y0018878D02*
X0011039D01*
X0011186Y0018860D02*
X0011021D01*
X0011203Y0018843D02*
X0011003D01*
X0011221Y0018825D02*
X0010986D01*
X0011239Y0018807D02*
X0010968D01*
X0011256Y0018790D02*
X0010950D01*
X0011274Y0018772D02*
X0010933D01*
X0011292Y0018754D02*
X0010915D01*
X0011309Y0018737D02*
X0010897D01*
X0011327Y0018719D02*
X0010880D01*
X0011345Y0018701D02*
X0010862D01*
X0011362Y0018684D02*
X0010844D01*
X0011380Y0018666D02*
X0010827D01*
X0011398Y0018648D02*
X0010809D01*
X0011415Y0018631D02*
X0010791D01*
X0011433Y0018613D02*
X0010773D01*
X0011435Y0018595D02*
X0010772D01*
X0011417Y0018577D02*
X0010790D01*
X0011399Y0018560D02*
X0010807D01*
X0011382Y0018542D02*
X0010825D01*
X0011364Y0018524D02*
X0010843D01*
X0011346Y0018507D02*
X0010860D01*
X0011329Y0018489D02*
X0010878D01*
X0011311Y0018471D02*
X0010896D01*
X0011293Y0018454D02*
X0010913D01*
X0011275Y0018436D02*
X0010931D01*
X0011258Y0018418D02*
X0010949D01*
X0011240Y0018401D02*
X0010966D01*
X0011222Y0018383D02*
X0010984D01*
X0011205Y0018365D02*
X0011002D01*
X0011187Y0018348D02*
X0011019D01*
X0011169Y0018330D02*
X0011037D01*
X0011152Y0018312D02*
X0011055D01*
X0011134Y0018294D02*
X0011073D01*
X0011116Y0018277D02*
X0011090D01*
X0010764Y0018603D02*
X0011103Y0018264D01*
Y0018943D02*
X0010764Y0018603D01*
X0011103Y0018943D02*
X0011443Y0018603D01*
X0011103Y0018264D01*
X0011431Y0018615D02*
Y0018592D01*
X0011414Y0018632D02*
Y0018574D01*
X0011396Y0018650D02*
Y0018556D01*
X0011378Y0018668D02*
Y0018539D01*
X0011360Y0018686D02*
Y0018521D01*
X0011343Y0018703D02*
Y0018503D01*
X0011325Y0018721D02*
Y0018486D01*
G54D33*
G01X0004000Y0016125D02*
X0006000D01*
X0039375Y0014750D02*
X0037750D01*
X0039375D01*
G54D35*
G01X0028625Y0016375D02*
Y0018500D01*
G54D10*
X0028500Y0003500D03*
X0002993Y0017393D03*
X0017250Y0020500D03*
X0011810Y0019310D03*
G54D12*
X0028500Y0004500D03*
X0002993Y0018393D03*
X0017250Y0019500D03*
G54D13*
X0023500Y0003250D03*
G54D14*
X0025500D03*
G54D15*
X0025750Y0023000D03*
X0024750D03*
X0023750D03*
X0022750D03*
X0021750D03*
X0020750D03*
X0019750D03*
X0018750D03*
X0017750D03*
X0016750D03*
X0015750D03*
X0014750D03*
X0013750D03*
X0012750D03*
X0011750D03*
X0010750D03*
X0009750D03*
X0008750D03*
X0007750D03*
Y0017000D03*
X0008750D03*
X0009750D03*
X0010750D03*
X0011750D03*
X0012750D03*
X0013750D03*
X0014750D03*
X0015750D03*
X0016750D03*
X0017750D03*
X0018750D03*
X0019750D03*
X0020750D03*
X0021750D03*
X0022750D03*
X0023750D03*
X0024750D03*
X0025750D03*
X0026750D03*
X0018750Y0028500D03*
X0022750D03*
X0032500Y0008000D03*
X0028500D03*
X0023000Y0024000D03*
X0027000D03*
X0004500Y0014000D03*
Y0010000D03*
X0018750Y0017750D03*
Y0021750D03*
X0024750Y0011750D03*
Y0015750D03*
X0023750Y0011750D03*
Y0015750D03*
X0022750Y0011750D03*
Y0015750D03*
X0021750Y0011750D03*
Y0015750D03*
X0020750Y0011750D03*
Y0015750D03*
X0019750Y0011750D03*
Y0015750D03*
X0028500Y0005750D03*
X0017750Y0024000D03*
X0034750Y0008000D03*
G54D16*
X0026750Y0023000D03*
X0028500Y0006750D03*
X0018695Y0024000D03*
X0033805Y0008000D03*
G54D17*
X0037750Y0012250D03*
X0003000Y0014000D03*
Y0013000D03*
Y0012000D03*
Y0023250D03*
Y0022250D03*
Y0021250D03*
G54D18*
X0037750Y0013250D03*
X0003000Y0015000D03*
Y0024250D03*
G54D19*
X0017463Y0003500D03*
G54D20*
X0019037D03*
G54D21*
X0011250Y0004125D03*
X0010250D03*
X0009250D03*
X0008250D03*
X0007250D03*
X0006250D03*
X0005250D03*
G54D22*
X0037750Y0018750D03*
Y0017000D03*
X0012250Y0004125D03*
G54D23*
X0001250Y0001500D03*
X0038750D03*
G54D24*
X0037750Y0019750D03*
Y0020750D03*
Y0021750D03*
Y0022750D03*
Y0023750D03*
Y0016000D03*
G54D25*
X0001750Y0030016D03*
X0038361D03*
Y0008364D03*
X0001750D03*
G54D26*
X0005750Y0030000D03*
X0006750D03*
X0007750D03*
X0008750D03*
X0009750D03*
X0010750D03*
X0011750D03*
X0012750D03*
X0013750D03*
X0014750D03*
X0015750D03*
X0016750D03*
X0017750D03*
X0018750D03*
X0019750D03*
G54D27*
X0004750D03*
G54D28*
X0001437Y0004187D03*
X0003437D03*
X0002437Y0005812D03*
G54D29*
X0015150Y0020000D03*
X0013150D03*
X0029811Y0027561D03*
G54D30*
X0030750Y0003500D03*
Y0004500D03*
G54D31*
Y0002500D03*
G54D34*
X0004000Y0016125D03*
X0006000D03*
X0039375Y0014750D03*
X0037750D03*
X0028625Y0016375D03*
Y0018500D03*
M02*
