%
T1C0.0280F200S100
X002993Y017393
X002993Y018393
X004000Y016125
X004500Y010000
X004500Y014000
X006000Y016125
X011103Y018603
X011810Y019310
X013150Y020000
X015150Y020000
X017250Y019500
X017250Y020500
X018750Y017750
X018750Y021750
X018750Y028500
X019750Y011750
X020750Y011750
X020750Y015750
X019750Y015750
X021750Y011750
X022750Y011750
X022750Y015750
X021750Y015750
X022750Y028500
X023000Y024000
X023750Y011750
X023750Y015750
X024750Y011750
X024750Y015750
X027000Y024000
X028500Y003500
X028500Y004500
X028500Y008000
X028625Y016375
X028625Y018500
X032500Y008000
X037750Y014750
X039375Y014750
T2C0.0340F200S100
X003000Y012000
X003000Y013000
X003000Y014000
X003000Y015000
X003000Y021250
X003000Y022250
X003000Y023250
X003000Y024250
X004750Y030000
X005250Y004125
X005750Y030000
X006250Y004125
X006750Y030000
X007250Y004125
X007750Y017000
X007750Y023000
X007750Y030000
X008250Y004125
X008750Y017000
X008750Y023000
X008750Y030000
X009250Y004125
X009750Y017000
X009750Y023000
X009750Y030000
X010250Y004125
X010750Y017000
X010750Y023000
X010750Y030000
X011250Y004125
X011750Y017000
X011750Y023000
X011750Y030000
X012250Y004125
X012750Y017000
X012750Y023000
X012750Y030000
X013750Y017000
X014750Y017000
X014750Y023000
X013750Y023000
X013750Y030000
X014750Y030000
X015750Y017000
X016750Y017000
X016750Y023000
X015750Y023000
X015750Y030000
X016750Y030000
X017750Y017000
X017750Y023000
X017750Y024000
X018695Y024000
X017750Y030000
X018750Y017000
X019750Y017000
X019750Y023000
X018750Y023000
X018750Y030000
X019750Y030000
X020750Y017000
X021750Y017000
X021750Y023000
X020750Y023000
X022750Y017000
X022750Y023000
X023500Y003250
X023750Y017000
X024750Y017000
X024750Y023000
X023750Y023000
X025500Y003250
X025750Y017000
X025750Y023000
X026750Y017000
X026750Y023000
X027689Y025439
X028500Y005750
X028500Y006750
X029811Y027561
X030750Y002500
X030750Y003500
X030750Y004500
X033805Y008000
X034750Y008000
X037750Y012250
X037750Y013250
X037750Y016000
X037750Y017000
X037750Y018750
X037750Y019750
X037750Y020750
X037750Y021750
X037750Y022750
X037750Y023750
T4C0.1180F200S100
X001750Y008364
X001750Y030016
X038361Y008364
X038361Y030016
T5C0.1260F200S100
X001250Y001500
X038750Y001500
T3C0.0669F200S100
X017463Y003500
X019037Y003500
M30
